<svg xmlns="http://www.w3.org/2000/svg" width="1024" height="1024"><path d="M298 100h428l20 1 20 2 14 2 14 3 11 3 15 5 6 3 5 2 6 3 3 2 6 3 4 3 5 3 4 3 2 2 3 2 4 3 6 6 3 2 6 6 2 3 5 5 2 3 2 2 2 3 3 4 3 5 3 4 2 4 2 3 8 16 4 11 4 13 4 17 2 13 1 8 1 11 1 18v440l-1 18-1 11-2 15-2 11-2 9-4 13-3 9-3 7-2 4-1 3-2 3-4 8-2 3-3 5-3 4-2 3-3 4-2 2-2 3-2 2-2 3-15 15-3 2-2 2-3 2-2 2-3 2-4 3-5 3-3 2-5 3-6 3-3 2-5 2-4 2-11 4-9 3-11 3-16 3-15 2-11 1-17 1H292l-17-1-20-2-17-3-13-3-13-4-5-2-5-2-7-3-8-4-3-2-4-2-3-2-5-3-4-3-4-3-4-3-2-2-3-2-19-19-2-3-2-2-2-3-2-2-3-5-3-4-3-5-3-5-8-16-2-5-2-5-4-13-2-7-3-15-2-14-1-9-1-14-1-28V319l1-27 1-14 2-16 2-12 3-13 4-14 2-5 4-10 7-14 2-3 2-4 3-4 3-5 2-2 2-3 2-2 2-3 2-2 2-3 16-16 3-2 2-2 3-2 2-2 5-3 4-3 5-3 3-2 5-3 14-7 11-4 5-2 15-4 14-3 13-2 21-2Z" fill="#f4f3ef"/><path d="M298 100h428l20 1 20 2 14 2 14 3 11 3 15 5 6 3 5 2 6 3 3 2 6 3 4 3 5 3 4 3 2 2 3 2 4 3 6 6 3 2 6 6 2 3 5 5 2 3 2 2 2 3 3 4 3 5 3 4 2 4 2 3 8 16 4 11 4 13 4 17 2 13 1 8 1 11 1 18v440l-1 18-1 11-2 15-2 11-2 9-4 13-3 9-3 7-2 4-1 3-2 3-4 8-2 3-3 5-3 4-2 3-3 4-2 2-2 3-2 2-2 3-15 15-3 2-2 2-3 2-2 2-3 2-4 3-5 3-3 2-5 3-6 3-3 2-5 2-4 2-11 4-9 3-11 3-16 3-15 2-11 1-17 1H292l-17-1-20-2-17-3-13-3-13-4-5-2-5-2-7-3-8-4-3-2-4-2-3-2-5-3-4-3-4-3-4-3-2-2-3-2-19-19-2-3-2-2-2-3-2-2-3-5-3-4-3-5-3-5-8-16-2-5-2-5-4-13-2-7-3-15-2-14-1-9-1-14-1-28V319l1-27 1-14 2-16 2-12 3-13 4-14 2-5 4-10 7-14 2-3 2-4 3-4 3-5 2-2 2-3 2-2 2-3 2-2 2-3 16-16 3-2 2-2 3-2 2-2 5-3 4-3 5-3 3-2 5-3 14-7 11-4 5-2 15-4 14-3 13-2 21-2ZM101 303l-1 5v415l1 19 1 13 1 9 2 12 3 14 4 13 3 9 2 4 2 5 5 10 2 3 2 4 3 4 3 5 3 4 3 4 2 2 2 3 6 6 2 3 5 5 3 2 6 6 3 2 2 2 3 2 4 3 5 3 3 2 5 3 6 3 1 1 5 2 6 3 11 4 9 3 12 3 10 2 15 2 10 1 19 1h438l16-1 10-1 20-3 9-2 6-2 5-1 2-1 7-2 12-5 12-6 3-2 4-2 4-3 5-3 4-3 2-2 3-2 4-3 19-19 2-3 2-2 2-3 2-2 3-5 3-4 3-5 2-4 2-3 6-12 5-13 4-13 4-18 2-14 1-10 1-14V303Z" fill="#f7d750"/><path d="M101 303h823v205H100V308Z" fill="#f8f7f5"/><path d="M216 112h4v1l-6 2-7 3-6 3-3 1-3 2-6 3-3 2-5 3-4 3-3 2-4 3-2 2-3 2-4 4-3 2-10 10-2 3-3 3-2 3-2 2-2 3-3 4-3 5-2 3-3 5-8 16-5 13-4 14v5h804l2-1h2l-1-2-4-14-3-9-3-7-8-16-2-3-3-5-3-4-3-5-2-2-2-3-2-2-2-3-7-7-1-2-3-2-8-8-3-2-2-2-3-2-4-3-5-3-4-3-4-2-3-2-14-7-10-4v-1h3l9 3 6 3 5 2 6 3 3 2 6 3 4 3 5 3 4 3 2 2 3 2 4 3 6 6 3 2 6 6 2 3 5 5 2 3 2 2 2 3 3 4 3 5 3 4 2 4 2 3 8 16 4 11 4 13 4 17 2 13 1 8 1 11 1 18v440l-1 18-1 11-2 15-2 11-2 9-4 13-3 9-3 7-2 4-1 3-2 3-4 8-2 3-3 5-3 4-2 3-3 4-2 2-2 3-2 2-2 3-15 15-3 2-2 2-3 2-2 2-3 2-4 3-5 3-3 2-5 3-6 3-3 2-5 2-4 2-11 4-9 3-11 3-16 3-15 2-11 1-17 1H292l-17-1-20-2-17-3-13-3-13-4-5-2-5-2-7-3-8-4-3-2-4-2-3-2-5-3-4-3-4-3-4-3-2-2-3-2-19-19-2-3-2-2-2-3-2-2-3-5-3-4-3-5-3-5-8-16-2-5-2-5-4-13-2-7-3-15-2-14-1-9-1-14-1-28V319l1-27 1-14 2-16 2-12 3-13 4-14 2-5 4-10 7-14 2-3 2-4 3-4 3-5 2-2 2-3 2-2 2-3 2-2 2-3 16-16 3-2 2-2 3-2 2-2 5-3 4-3 5-3 3-2 5-3 14-7 11-4ZM101 303l-1 5v415l1 19 1 13 1 9 2 12 3 14 4 13 3 9 2 4 2 5 5 10 2 3 2 4 3 4 3 5 3 4 3 4 2 2 2 3 6 6 2 3 5 5 3 2 6 6 3 2 2 2 3 2 4 3 5 3 3 2 5 3 6 3 1 1 5 2 6 3 11 4 9 3 12 3 10 2 15 2 10 1 19 1h438l16-1 10-1 20-3 9-2 6-2 5-1 2-1 7-2 12-5 12-6 3-2 4-2 4-3 5-3 4-3 2-2 3-2 4-3 19-19 2-3 2-2 2-3 2-2 3-5 3-4 3-5 2-4 2-3 6-12 5-13 4-13 4-18 2-14 1-10 1-14V303Z" fill="#f8bd30"/><path d="M101 303h823v100H100v-95Z" fill="#f0efee"/><path d="M101 303h823v54h-8l-3-2-2-3v-6l1-2h-21l1 2v6l-2 3-3 2h-8l-3-2-2-3v-6l1-2-3 1h-16l-1 7-2 3-3 2h-8l-3-2-2-3v-6l1-2-19 1-1 7-2 3-3 2h-8l-3-2-2-3v-6l1-2-5 1h-5l-11-1 1 2v6l-2 3-3 2h-8l-3-2-2-3v-6l1-2-8 1h-11l-1 7-2 3-3 2h-8l-3-2-2-3v-6l1-2h-21l1 2v6l-2 3-3 2h-8l-3-2-2-3-1-7h-13l-6-1 1 2v6l-2 3-3 2h-8l-3-2-2-3v-6l1-2h-21l1 2v6l-2 3-3 2h-8l-3-2-2-3v-7h-16l-4-1 1 2v6l-2 3-3 2h-8l-3-2-2-3v-6l1-2-16 1h-3l-1 7-2 3-3 2h-8l-3-2-2-3-1-7h-5l-14-1 1 2v6l-2 3-3 2h-8l-3-2-2-3v-6l1-2-5 1h-15v7l-2 3-3 2h-8l-3-2-2-3v-6l1-2h-21l1 2v6l-2 3-3 2h-8l-3-2-2-3v-6l1-2-7 1h-12l-1 7-2 3-3 2h-8l-3-2-2-3v-6l1-2h-21l1 2v6l-2 3-3 2h-8l-3-2-2-3-1-7h-12l-7-1 1 2v6l-2 3-3 2h-8l-3-2-2-3v-6l1-2-13 1h-4l-4-1 1 2v6l-2 3-3 2h-8l-3-2-2-3-1-7-19-1 1 2v6l-2 3-3 2h-8l-3-2-2-3-1-7h-17l-2-1 1 2v6l-2 3-3 2h-8l-3-2-2-3v-6l1-2h-21l1 2v6l-2 3-3 2h-8l-3-2-2-3v-6l1-2-4 1h-15l-1 7-2 3-3 2h-8l-3-2-2-3v-6l1-2-19 1-1 7-2 3-3 2h-9l-1-1v-48Z" fill="#d3d3d3"/><path d="M216 112h4v1l-6 2-7 3-6 3-3 1-3 2-6 3-3 2-5 3-4 3-3 2-4 3-2 2-3 2-4 4-3 2-10 10-2 3-3 3-2 3-2 2-2 3-3 4-3 5-2 3-3 5-8 16-5 13-4 14-3 14-2 12-1 9-1 13-1 26v415l1 19 1 13 1 9 2 12 3 14 4 13 3 9 2 4 2 5 5 10 2 3 2 4 3 4 3 5 3 4 3 4 2 2 2 3 6 6 2 3 4 4 3 2 6 6 3 2 2 2 3 2 4 3 5 3 3 2 5 3 6 3 1 1 5 2 6 3 11 4 9 3 12 3 10 2 15 2 10 1 19 1h438l16-1 10-1 20-3 9-2 6-2 5-1 2-1 7-2 12-5 12-6 3-2 4-2 4-3 5-3 4-3 2-2 3-2 4-3 18-18 2-3 2-2 2-3 2-2 3-5 3-4 3-5 2-4 2-3 6-12 5-13 4-13 4-18 2-14 1-10 1-14V288l-1-14-1-10-2-14-3-14-4-14-3-9-3-7-8-16-2-3-3-5-3-4-3-5-2-2-2-3-2-2-2-3-7-7-1-2-3-2-8-8-3-2-2-2-3-2-4-3-5-3-4-3-4-2-3-2-14-7-10-4v-1h3l9 3 6 3 5 2 6 3 3 2 6 3 4 3 5 3 4 3 2 2 3 2 4 3 6 6 3 2 6 6 2 3 5 5 2 3 2 2 2 3 3 4 3 5 3 4 2 4 2 3 8 16 4 11 4 13 4 17 2 13 1 8 1 11 1 18v440l-1 18-1 11-2 15-2 11-2 9-4 13-3 9-3 7-2 4-1 3-2 3-4 8-2 3-3 5-3 4-2 3-3 4-2 2-2 3-2 2-2 3-15 15-3 2-2 2-3 2-2 2-3 2-4 3-5 3-3 2-5 3-6 3-3 2-5 2-4 2-11 4-9 3-11 3-16 3-15 2-11 1-17 1H292l-17-1-20-2-17-3-13-3-13-4-5-2-5-2-7-3-8-4-3-2-4-2-3-2-5-3-4-3-4-3-4-3-2-2-3-2-19-19-2-3-2-2-2-3-2-2-3-5-3-4-3-5-3-5-8-16-2-5-2-5-4-13-2-7-3-15-2-14-1-9-1-14-1-28V319l1-27 1-14 2-16 2-12 3-13 4-14 2-5 4-10 7-14 2-3 2-4 3-4 3-5 2-2 2-3 2-2 2-3 2-2 2-3 16-16 3-2 2-2 3-2 2-2 5-3 4-3 5-3 3-2 5-3 14-7 11-4Z"/><path d="M132 199h1l1 3-1 2h4l2 1v-2h2v-2h4v2h2v-2h6v3h2v-2h6l8 1v2h2v-2l2-1h8l1 3 1 1v-2h2v-2h8l2-1 1-2h1l1 3-1 2h4l2 1v-2h2v-2h4v2h2v-2h6v3h2v-2h6l8 1v2h2v-2l2-1h8l1 3 1 1v-2h2v-2h8l2-1 1-2h1l1 3-1 2h4l2 1v-2h2v-2h4v2h2v-2h6v3h2v-2h6l8 1v2h2v-2l2-1h8l1 3 1 1v-2h2v-2h8l2-1 1-2h1l1 3-1 2h4l2 1v-2h2v-2h4v2h2v-2h6v3h2v-2h6l8 1v2h2v-2l2-1h8l1 3 1 1v-2h2v-2h8l2-1 1-2h1l1 3-1 2h4l2 1v-2h2v-2h4v2h2v-2h6v3h2v-2h6l8 1v2h2v-2l2-1h8l1 3 1 1v-2h2v-2h8l2-1 1-2h1l1 3-1 2h4l2 1v-2h2v-2h4v2h2v-2h6v3h2v-2h6l8 1v2h2v-2l2-1h8l1 3 1 1v-2h2v-2h8l2-1 1-2h1l1 3-1 2h4l2 1v-2h2v-2h4v2h2v-2h6v3h2v-2h6l8 1v2h2v-2l2-1h8l1 3 1 1v-2h2v-2h8l2-1 1-2h1l1 3-1 2h4l2 1v-2h2v-2h4v2h2v-2h6v3h2v-2h6l8 1v2h2v-2l2-1h8l1 3 1 1v-2h2v-2h8l2-1 1-2h1l1 3-1 2h4l2 1v-2h2v-2h4v2h2v-2h6v3h2v-2h6l8 1v2h2v-2l2-1h8l1 3 1 1v-2h2v-2h8l2-1 1-2h1l1 3-1 2h4l2 1v-2h2v-2h4v2h2v-2h6v3h2v-2h6l8 1v2h2v-2l2-1h8l1 3 1 1v-2h2v-2h8l2-1 1-2h1l1 3-1 2h4l2 1v-2h2v-2h4v2h2v-2h6v3h2v-2h6l8 1v2h2v-2l2-1h8l1 3 1 1v-2h2v-2h8l2-1 1-2h1l1 3-1 2h4l2 1v-2h2v-2h4v2h2v-2h6v3h2v-2h6l8 1v2h2v-2l2-1h8l1 3 1 1v-2h2v-2h8l2-1 1-2h1v2l3-1 4 8 4 11 4 13 1 4v2l-4 2H108v-6l4-14 5-13 3-6 4 1h5l2-1Z" fill="#f8cf43"/><path d="M115 344h20v8l2 3 2 1h8l3-2 1-2 1-8h20v8l2 3 2 1h8l3-2 1-2v-8h21v8l2 3 2 1h8l3-2 1-2v-8h19l1 1 1 7 2 3 2 1h8l3-2 1-2v-8h19l1 1 1 7 2 3 2 1h8l3-2 1-2v-8h21v8l2 3 2 1h8l3-2 1-2v-8h19l1 1 1 7 2 3 2 1h8l3-2 1-2v-8h21v8l2 3 2 1h8l3-2 1-2 1-8h20v8l2 3 2 1h8l3-2 1-2v-8h21v8l2 3 2 1h8l3-2 1-2 1-7 3-1h17v8l2 3 2 1h8l3-2 1-2v-8h19l1 1 1 7 2 3 2 1h8l3-2 1-2 1-7 1-1h19v8l2 3 2 1h8l3-2 1-2v-8h18l2 1 1 7 2 3 2 1h8l3-2 1-2v-8h21v8l2 3 2 1h8l3-2 1-2v-8h20l1 8 2 3 2 1h8l3-2 1-2v-8h21v8l2 3 2 1h8l3-2 1-2 1-7 1-1h19v8l2 3 2 1h8l3-2 1-2v-8h21v8l2 3 2 1h8l3-2 1-2 1-7 1-1h19v8l2 3 2 1h8l3-2 1-2 1-7 1-1h19v8l2 3 2 1h8l3-2 1-2v-8h21v8l2 3 2 1 8 1v18h-1v-2l-4 1h-16v1l-3 1-1-1h-8v1h-8l-6-1v-1h-6l-3 1-5 1-3-1h-1v-2l-4 1h-16v1l-3 1-1-1h-8v1h-8l-6-1v-1h-6l-3 1-5 1-3-1h-1v-2l-4 1h-16v1l-3 1-1-1h-8v1h-8l-6-1v-1h-6l-3 1-5 1-3-1h-1v-2l-4 1h-16v1l-3 1-1-1h-8v1h-8l-6-1v-1h-6l-3 1-5 1-3-1h-1v-2l-4 1h-16v1l-3 1-1-1h-8v1h-8l-6-1v-1h-6l-3 1-5 1-3-1h-1v-2l-4 1h-16v1l-3 1-1-1h-8v1h-8l-6-1v-1h-6l-3 1-5 1-3-1h-1v-2l-4 1h-16v1l-3 1-1-1h-8v1h-8l-6-1v-1h-6l-3 1-5 1-3-1h-1v-2l-4 1h-16v1l-3 1-1-1h-8v1h-8l-6-1v-1h-6l-3 1-5 1-3-1h-1v-2l-4 1h-16v1l-3 1-1-1h-8v1h-8l-6-1v-1h-6l-3 1-5 1-3-1h-1v-2l-4 1h-16v1l-3 1-1-1h-8v1h-8l-6-1v-1h-6l-3 1-5 1-3-1h-1v-2l-4 1h-16v1l-3 1-1-1h-8v1h-8l-6-1v-1h-6l-3 1-5 1-3-1h-1v-2l-4 1h-16v1l-3 1-1-1h-8v1h-8l-6-1v-1h-6l-3 1-5 1-3-1h-1v-2l-4 1h-16v1l-3 1-1-1h-8v1h-8l-6-1v-1h-6l-3 1v-19h10l3-2 1-2Z" fill="#e8e8e8"/><path d="M298 100h428l20 1 20 2 14 2 14 3 11 3 3 1v2h2l10 4 14 7 3 2 5 3 4 3v2h-3l-3-2h-5v-2l-4 1v1l-12 1h-8l-1-1-2 3-3-1v-1l-8-1v-1h-3l-1 3h-6v-2l-6 1-1 1-3-1-1-1h-5v-2l-4 1v1l-12 1h-8l-1-1-2 3-3-1v-1l-8-1v-1h-3l-1 3h-6v-2l-6 1-1 1-3-1-1-1h-5v-2l-4 1v1l-12 1h-8l-1-1-2 3-3-1v-1l-8-1v-1h-3l-1 3h-6v-2l-6 1-1 1-3-1-1-1h-5v-2l-4 1v1l-12 1h-8l-1-1-2 3-3-1v-1l-8-1v-1h-3l-1 3h-6v-2l-6 1-1 1-3-1-1-1h-5v-2l-4 1v1l-12 1h-8l-1-1-2 3-3-1v-1l-8-1v-1h-3l-1 3h-6v-2l-6 1-1 1-3-1-1-1h-5v-2l-4 1v1l-12 1h-8l-1-1-2 3-3-1v-1l-8-1v-1h-3l-1 3h-6v-2l-6 1-1 1-3-1-1-1h-5v-2l-4 1v1l-12 1h-8l-1-1-2 3-3-1v-1l-8-1v-1h-3l-1 3h-6v-2l-6 1-1 1-3-1-1-1h-5v-2l-4 1v1l-12 1h-8l-1-1-2 3-3-1v-1l-8-1v-1h-3l-1 3h-6v-2l-6 1-1 1-3-1-1-1h-5v-2l-4 1v1l-12 1h-8l-1-1-2 3-3-1v-1l-8-1v-1h-3l-1 3h-6v-2l-6 1-1 1-3-1-1-1h-5v-2l-4 1v1l-12 1h-8l-1-1-2 3-3-1v-1l-8-1v-1h-3l-1 3h-6v-2l-6 1-1 1-3-1-1-1h-5v-2h-7l1-3 2-3 6-3 1-1 5-2 6-3 8-3h3v-2l11-3 14-3 13-2 21-2Zm-67 32v1h1v-1Zm64 0v1h1v-1Zm64 0v1h1v-1Zm64 0v1h1v-1Zm64 0v1h1v-1Zm64 0v1h1v-1Zm64 0v1h1v-1Zm64 0v1h1v-1Zm64 0v1h1v-1Zm64 0v1h1v-1Z" fill="#f7df5c"/><path d="M123 283h6v2l7-1h16l1-1h8v2l7-1h9l10 1v-2h6v2l7-1h16l1-1h8v2l7-1h9l10 1v-2h6v2l7-1h16l1-1h8v2l7-1h9l10 1v-2h6v2l7-1h16l1-1h8v2l7-1h9l10 1v-2h6v2l7-1h16l1-1h8v2l7-1h9l10 1v-2h6v2l7-1h16l1-1h8v2l7-1h9l10 1v-2h6v2l7-1h16l1-1h8v2l7-1h9l10 1v-2h6v2l7-1h16l1-1h8v2l7-1h9l10 1v-2h6v2l7-1h16l1-1h8v2l7-1h9l10 1v-2h6v2l7-1h16l1-1h8v2l7-1h9l10 1v-2h6v2l7-1h16l1-1h8v2l7-1h9l10 1v-2h6v2l7-1h16l1-1h8v2l7-1h9l10 1v-2h6v2l7-1h17l2 1 1 3v15H101v-17l2-2h10l10 1Z" fill="#f8b83b"/><path d="M107 238h1l1 1h804l2-1h2l1 2 2 10v7l-17 1H131l-26-1v-9Z" fill="#f8c737"/><path d="M101 303h823v18l-823-1v3h-1v-15Z" fill="#c0c0be"/><path d="M115 344h20v8l2 3 2 1h8l3-2 1-2 1-8h20v8l2 3 2 1h8l3-2 1-2v-8h21v8l2 3 2 1h8l3-2 1-2v-8h19l1 1 1 7 2 3 2 1h8l3-2 1-2v-8h19l1 1 1 7 2 3 2 1h8l3-2 1-2v-8h21v8l2 3 2 1h8l3-2 1-2v-8h19l1 1 1 7 2 3 2 1h8l3-2 1-2v-8h21v8l2 3 2 1h8l3-2 1-2 1-8h20v8l2 3 2 1h8l3-2 1-2v-8h21v8l2 3 2 1h8l3-2 1-2 1-7 3-1h17v8l2 3 2 1h8l3-2 1-2v-8h19l1 1 1 7 2 3 2 1h8l3-2 1-2 1-7 1-1h19v8l2 3 2 1h8l3-2 1-2v-8h18l2 1 1 7 2 3 2 1h8l3-2 1-2v-8h21v8l2 3 2 1h8l3-2 1-2v-8h20l1 8 2 3 2 1h8l3-2 1-2v-8h21v8l2 3 2 1h8l3-2 1-2 1-7 1-1h19v8l2 3 2 1h8l3-2 1-2v-8h21v8l2 3 2 1h8l3-2 1-2 1-7 1-1h19v8l2 3 2 1h8l3-2 1-2 1-7 1-1h19v8l2 3 2 1h8l3-2 1-2v-8h21v8l2 3 2 1 8 1v4l-17 1H123l-23-1v-5h10l3-2 1-2Z" fill="#e2e2df"/><path d="M111 323h810l3 1v11H103l-2-1v-10Z" fill="#d1d1cf"/><path d="M107 293h6v2l3-1 21-1h40v2l3-1 21-1h40v2l3-1 21-1h40v2l3-1 21-1h40v2l3-1 21-1h40v2l3-1 21-1h40v2l3-1 21-1h40v2l3-1 21-1h40v2l3-1 21-1h40v2l3-1 21-1h40v2l3-1 21-1h40v2l3-1 21-1h40v2l3-1 21-1h4l14 1 1 4v5H101v-4l1-5Z" fill="#f8c04e"/><path d="M100 661h1v54h823v21h-1v-13H100Z" fill="#d8d8d0"/><path d="M100 508h824v8H100Z" fill="#d8d8d8"/><path d="M101 303h823v9h-1v-2H101v13h-1v-15Z" fill="#989898"/><path d="M101 310h822l1 2v4h-1v-2H101Z" fill="#b0b0af"/><path d="M101 307h822l1 1v4h-1v-2H101v13h-1v-15Z" fill="#a0a09d"/><path d="M101 314h822l1 2v3h-1v-2H111l-10-1Z" fill="#b8b8b4"/><path d="M101 310h822v2H101Z" fill="#a8a8a8"/><path d="M731 341h8l3 2 2 3v6l-2 3-3 2h-8l-3-2-2-3v-6l2-3ZM657 341h8l3 2 2 3v6l-2 3-3 2h-8l-3-2-2-3v-6l2-3ZM472 341h8l3 2 2 3v6l-2 3-3 2h-8l-3-2-2-3v-6l2-3ZM398 341h8l3 2 2 3v6l-2 3-3 2h-8l-3-2-2-3v-6l2-3ZM361 341h8l3 2 2 3v6l-2 3-3 2h-8l-3-2-2-3v-6l2-3ZM879 341h8l3 2 2 3v6l-2 3-3 2h-8l-3-2-2-3v-6l2-3ZM842 341h8l3 2 2 3v6l-2 3-3 2h-8l-3-2-2-3v-6l2-3ZM805 341h8l3 2 2 3v6l-2 3-3 2h-8l-3-2-2-3v-6l2-3ZM768 341h8l3 2 2 3v6l-2 3-3 2h-8l-3-2-2-3v-6l2-3ZM694 341h8l3 2 2 3v6l-2 3-3 2h-8l-3-2-2-3v-6l2-3ZM620 341h8l3 2 2 3v6l-2 3-3 2h-8l-3-2-2-3v-6l2-3ZM583 341h8l3 2 2 3v6l-2 3-3 2h-8l-3-2-2-3v-6l2-3ZM546 341h8l3 2 2 3v6l-2 3-3 2h-8l-3-2-2-3v-6l2-3ZM509 341h8l3 2 2 3v6l-2 3-3 2h-8l-3-2-2-3v-6l2-3ZM435 341h8l3 2 2 3v6l-2 3-3 2h-8l-3-2-2-3v-6l2-3ZM324 341h8l3 2 2 3v6l-2 3-3 2h-8l-3-2-2-3v-6l2-3ZM287 341h8l3 2 2 3v6l-2 3-3 2h-8l-3-2-2-3v-6l2-3ZM250 341h8l3 2 2 3v6l-2 3-3 2h-8l-3-2-2-3v-6l2-3ZM213 341h8l3 2 2 3v6l-2 3-3 2h-8l-3-2-2-3v-6l2-3ZM176 341h8l3 2 2 3v6l-2 3-3 2h-8l-3-2-2-3v-6l2-3ZM139 341h8l3 2 2 3v6l-2 3-3 2h-8l-3-2-2-3v-6l2-3Z" fill="#b8b8b8"/><path d="M102 341h8l3 2 2 3v6l-2 3-3 2h-9l-1-1v-14Z" fill="#b8b8b7"/><path d="M916 341h8v16h-8l-3-2-2-3v-6l2-3Z" fill="#b8b8b8"/><path d="M100 563h1v98h-1Z" fill="#f0eeec"/><path d="M185 893h2l2 2 2 1v-2h2v3h6v-4h1l1 2v3h2v1h-2v3h4l2 1v3h-2l-4-2-3-1-3-2-6-3-3-2-2-1v-1Zm4 1h1v1h-1Z" fill="#f0f0ed"/><path d="M835 887h6l5 1 2 1v1l-5 3-4 3-6 3h-1l-1-2v-3h1v2h3v-2h2l-1-3-3-1-1-1v-1Z" fill="#f0f0ef"/><path d="M797 906h10l1 1v2h2v1l-5 2-4 1-2 1h-3l-1-3 1-1v-1l1-1Zm11 0h1v1h-1Z" fill="#f0efe8"/><path d="M100 661h1v62h-1Z" fill="#d0d0cc"/><path d="M213 903h6l1 1v1l-3 1-1 2h3l1 1v2h-3l-8-3v-1l3-1Zm7 0h3v1h-3Zm0 5h1v1h-1Z" fill="#f0f0e9"/><path d="M101 724h6l2 3v1l-1 1h-1v-2h-4l-1 15h-1Zm7 0h1v2h-1Z" fill="#f0f0ef"/><path d="M100 626h1v35h-1Z" fill="#e0e0dc"/><path d="M876 354h14v1l-3 2h-8l-3-2ZM839 354h14v1l-3 2h-8l-3-2ZM802 354h14v1l-3 2h-8l-3-2ZM765 354h14v1l-3 2h-8l-3-2ZM728 354h14v1l-3 2h-8l-3-2ZM691 354h14v1l-3 2h-8l-3-2ZM654 354h14v1l-3 2h-8l-3-2ZM617 354h14v1l-3 2h-8l-3-2ZM580 354h14v1l-3 2h-8l-3-2ZM543 354h14v1l-3 2h-8l-3-2ZM506 354h14v1l-3 2h-8l-3-2ZM469 354h14v1l-3 2h-8l-3-2ZM432 354h14v1l-3 2h-8l-3-2ZM395 354h14v1l-3 2h-8l-3-2ZM358 354h14v1l-3 2h-8l-3-2ZM321 354h14v1l-3 2h-8l-3-2ZM284 354h14v1l-3 2h-8l-3-2ZM247 354h14v1l-3 2h-8l-3-2ZM210 354h14v1l-3 2h-8l-3-2ZM173 354h14v1l-3 2h-8l-3-2ZM136 354h14v1l-3 2h-8l-3-2Z" fill="#c0c0b9"/><path d="M101 354h12v1l-3 2h-9l-1-1v-1Z" fill="#c0c0b8"/><path d="M913 354h11v3h-8l-3-2Z" fill="#c0c0b9"/><path d="M295 923h25v1h-25Z" fill="#d8d8d4"/><path d="M185 893h2l2 2 2 1v-2h2v5h-2l-5-3-2-1v-1Zm4 1h1v1h-1Z" fill="#f0f0eb"/><path d="M709 923h24v1h-24Z" fill="#d0d0cb"/><path d="M923 695h1v20h-1v-14h-2v-1h2v-3h-2v-1Z" fill="#f0efec"/><path d="M100 602h1v24h-1Z" fill="#e8e7e3"/><path d="M100 700h1v23h-1Z" fill="#b0b0b0"/><path d="M923 715h1v21h-1Z" fill="#c0c0be"/><path d="M200 901l4 1 3 1v3h-2l-4-2-3-1v-1Z" fill="#f0f0e8"/><path d="M880 357h6v1l-3 1h-10v-1ZM806 357h6l7 1v1h-10l-3-1ZM621 357h6v2h-10v-1ZM103 357h6l6 1v1h-10l-2-1Z" fill="#e5e0e0"/><path d="M100 323h1v15h-1Z" fill="#c0c0be"/><path d="M100 308h1v15h-1Z" fill="#909088"/><path d="M102 269h1v6h8v1h-9Z" fill="#f8b830"/><path d="M812 905h3l3 1v1l-5 2h-2v-2l1-1Z" fill="#eeeee6"/><path d="M100 647h1v14h-1Z" fill="#d8d8d8"/><path d="M193 897h3l1 2v2h-2l-2-1Z" fill="#f0f0ee"/><path d="M151 156h2v1l-5 5h-1v-2Zm-5 6h1v1h-1Z" fill="#f8d850"/><path d="M698 923h11v1h-11Z" fill="#e8e6e2"/><path d="M295 923h11v1h-11Z" fill="#c8c8c8"/><path d="M922 739h1v11h-1Z" fill="#e0e0dc"/><path d="M824 899h8v1l-2 1h-2l-4-1Z" fill="#f0f0e8"/><path d="M923 705h1v10h-1Z" fill="#e7e7e3"/><path d="M923 288h1v10h-1Z" fill="#b09830"/><path d="M922 274h1v10h-1Z" fill="#e0a830"/><path d="M724 923h9v1h-9Z" fill="#b4b0ac"/><path d="M740 922h9v1h-9Z" fill="#c0c0c0"/><path d="M823 901h5v1l-4 2h-1Z" fill="#f0f0e8"/><path d="M276 922h8v1h-8Z" fill="#d8d8d0"/><path d="M819 903l3 1v1l-2 1h-2l-1-1v-1Z" fill="#eeede6"/><path d="M841 889h7v1l-3 1-4-1Z" fill="#f0eee8"/><path d="M921 752h1v8h-1Z" fill="#e8e8e4"/><path d="M102 747h1v8h-1Z" fill="#e8e8e0"/><path d="M101 734h1v8h-1Z" fill="#d8d8d4"/><path d="M100 715h1v8h-1Z" fill="#686868"/><path d="M113 217h1l1 1v2l-2 2h-1v-2Z" fill="#f8ce40"/><path d="M320 923h7v1h-7Z" fill="#e8e6e2"/><path d="M237 916h5l1 1v1h-2l-4-1ZM173 886h6v1l-5 1-1-1Z" fill="#f0f0e8"/><path d="M100 708h1v7h-1Z" fill="#a0a0a0"/><path d="M100 323h1v7h-1Z" fill="#b0b0b0"/><path d="M100 301h1v7h-1Z" fill="#484848"/><path d="M164 144h1v1h-1Zm-1 1h1v1h-1Zm-1 1h1v1h-1Zm-1 1h1v1h-1Zm-2 1h2v1l-1 1h-1Z" fill="#f8d858"/><path d="M289 923h6v1h-6Z" fill="#787870"/><path d="M200 901h1l1 1v2l-4-1v-1ZM835 895h1l1 1v1l-3 1-1-1v-1Z" fill="#f0f0e8"/><path d="M101 728h1v6h-1Z" fill="#e2e0dd"/><path d="M917 357h6v1h-6Z" fill="#d3d3d1"/><path d="M880 357h6v1h-6Z" fill="#d4d4d2"/><path d="M843 357h6v1h-6Z" fill="#d3d3d1"/><path d="M806 357h6v1h-6Z" fill="#d4d4d2"/><path d="M769 357h6v1h-6ZM732 357h6v1h-6Z" fill="#d0d0d0"/><path d="M695 357h6v1h-6Z" fill="#d3d3d1"/><path d="M658 357h6v1h-6ZM621 357h6v1h-6ZM584 357h6v1h-6ZM547 357h6v1h-6Z" fill="#d4d4d2"/><path d="M510 357h6v1h-6ZM473 357h6v1h-6ZM436 357h6v1h-6Z" fill="#d0d0d0"/><path d="M399 357h6v1h-6Z" fill="#d3d3d1"/><path d="M362 357h6v1h-6Z" fill="#d4d4d2"/><path d="M325 357h6v1h-6Z" fill="#d3d3d1"/><path d="M288 357h6v1h-6Z" fill="#d4d4d2"/><path d="M214 357h6v1h-6Z" fill="#d0d0d0"/><path d="M177 357h6v1h-6Z" fill="#d3d3d1"/><path d="M140 357h6v1h-6Z" fill="#d0d0d0"/><path d="M103 357h6v1h-6Z" fill="#d3d3d1"/><path d="M288 340h6v1h-6Z" fill="#ccccca"/><path d="M100 308h1v6h-1Z" fill="#787870"/><path d="M107 238h1l1 3-1 1h-1Zm2 1h1v1h-1Z" fill="#f8c636"/><path d="M915 232h1v4h-3v-1h2ZM108 234h3v2h-3Z" fill="#f8c840"/><path d="M719 923h5v1h-5Z" fill="#c8c8c8"/><path d="M709 923h5v1h-5Z" fill="#d8d8d4"/><path d="M306 923h5v1h-5Z" fill="#d0d0cb"/><path d="M208 903h1v4h-2Z" fill="#f0f0e8"/><path d="M199 899h1v3h-3v-1h2ZM185 893h2v2h-3v-1Z" fill="#f0f0ea"/><path d="M841 891h4v1l-3 1-1-1Z" fill="#eaeae2"/><path d="M175 888h4v1l-1 1-3-1ZM171 883h1l1 1v1l-1 1h-1l-1-1v-1Z" fill="#f0f0e8"/><path d="M252 357h5v1h-5Z" fill="#d0d0d0"/><path d="M100 338h1l1 4h-2Z" fill="#cbcbc8"/><path d="M696 340h5v1h-5ZM547 340h5v1h-5Z" fill="#c8c8c8"/><path d="M923 303h1v5h-1Z" fill="#909088"/><path d="M923 298h1v5h-1Z" fill="#f8b840"/><path d="M103 260h1v5h-1Z" fill="#e0a830"/><path d="M105 248h1v5h-1Z" fill="#f8bd30"/><path d="M916 236h1v2h-2v-1Zm-3 2h2v1h-2Z" fill="#f8c840"/><path d="M705 923h4v1h-4ZM316 923h4v1h-4Z" fill="#e0e0da"/><path d="M295 923h4v1h-4Z" fill="#a8a8a8"/><path d="M276 922h4v1h-4Z" fill="#b0b0a8"/><path d="M755 921h4v1h-4Z" fill="#787870"/><path d="M266 921h4v1h-4Z" fill="#c0c0c0"/><path d="M258 920h4v1h-4Z" fill="#d0d0d0"/><path d="M251 919h4v1h-4Z" fill="#d0d0c8"/><path d="M246 918h4v1h-4Z" fill="#e8e8e0"/><path d="M799 911h1v2h-3v-1Z" fill="#f0f0ee"/><path d="M839 893h3v1l-3 1Z" fill="#e8e8e0"/><path d="M848 887h3v1l-3 1ZM859 878h1l1 1v1l-1 1h-1Z" fill="#f0f0e8"/><path d="M919 770h1v4h-1Z" fill="#c8c8c8"/><path d="M104 766h1v4h-1Z" fill="#d0d0d0"/><path d="M920 763h1v4h-1Z" fill="#d0d0c8"/><path d="M922 746h1v4h-1Z" fill="#b0b0a8"/><path d="M923 732h1v4h-1Z" fill="#787870"/><path d="M100 700h1v4h-1Z" fill="#c0c0bc"/><path d="M100 343h1v4h-1Z" fill="#b0b0b0"/><path d="M918 340h4v1h-4ZM881 340h4v1h-4ZM844 340h4v1h-4ZM807 340h4v1h-4ZM770 340h4v1h-4ZM733 340h4v1h-4ZM659 340h4v1h-4ZM622 340h4v1h-4ZM585 340h4v1h-4ZM511 340h4v1h-4ZM474 340h4v1h-4ZM437 340h4v1h-4ZM400 340h4v1h-4ZM363 340h4v1h-4ZM326 340h4v1h-4ZM252 340h4v1h-4ZM215 340h4v1h-4ZM178 340h4v1h-4ZM141 340h4v1h-4ZM104 340h4v1h-4Z" fill="#c8c8c8"/><path d="M100 319h1v4h-1Z" fill="#a0a0a0"/><path d="M923 288h1v4h-1Z" fill="#988028"/><path d="M101 282h1v4h-1ZM922 274h1v4h-1Z" fill="#b09830"/><path d="M102 269h1v4h-1ZM921 264h1v4h-1Z" fill="#e0a830"/><path d="M920 257h1v4h-1ZM104 254h1v4h-1ZM919 250h1v4h-1Z" fill="#f8b830"/><path d="M798 110h4v1h-4Z"/><path d="M733 923h3v1h-3Z" fill="#484848"/><path d="M730 923h3v1h-3Z" fill="#787870"/><path d="M299 923h3v1h-3Z" fill="#b4b0ac"/><path d="M289 923h3v1h-3Z" fill="#484848"/><path d="M746 922h3v1h-3Z" fill="#909088"/><path d="M763 920h3v1h-3Z" fill="#b8b8b8"/><path d="M196 899h1v2h-2v-1ZM173 886h2v2h-1l-1-1ZM168 882h2v2h-1l-1-1ZM156 872h2v2h-1l-1-1ZM151 867h2v2h-1l-1-1Z" fill="#f0f0e8"/><path d="M105 773h1v3h-1Z" fill="#c8c8c8"/><path d="M103 761h1v3h-1Z" fill="#a8a8a8"/><path d="M103 758h1v3h-1Z" fill="#d8d8d8"/><path d="M921 757h1v3h-1ZM102 752h1v3h-1Z" fill="#989898"/><path d="M922 743h1v3h-1Z" fill="#d0d0c8"/><path d="M101 739h1v3h-1Z" fill="#a0a098"/><path d="M923 729h1v3h-1Z" fill="#a8a8a8"/><path d="M101 728h1v3h-1Z" fill="#e8e8e5"/><path d="M923 726h1v3h-1Z" fill="#c0c0bc"/><path d="M923 723h1v3h-1Z" fill="#d0d0cc"/><path d="M100 720h1v3h-1Z" fill="#484848"/><path d="M100 712h1v3h-1Z" fill="#909088"/><path d="M100 330h1v3h-1Z" fill="#b8b8b8"/><path d="M100 308h1v3h-1Z" fill="#606060"/><path d="M101 286h1v3h-1ZM102 273h1v3h-1ZM921 268h1v3h-1Z" fill="#e0a830"/><path d="M127 188h1v2h-2v-1Z" fill="#f8d848"/><path d="M158 149h1v2h-2v-1Z" fill="#f8d850"/><path d="M805 112h3v1h-3ZM802 111h3v1h-3ZM220 111h3v1h-3ZM223 110h3v1h-3ZM795 109h3v1h-3ZM227 109h3v1h-3ZM791 108h3v1h-3ZM787 107h3v1h-3Z"/><path d="M728 923h2v1h-2Z" fill="#909088"/><path d="M722 923h2v1h-2Z" fill="#bcbcb8"/><path d="M295 923h2v1h-2Z" fill="#909088"/><path d="M749 922h2v1h-2Z" fill="#181810"/><path d="M744 922h2v1h-2Z" fill="#a8a8a8"/><path d="M740 922h2v1h-2Z" fill="#d0d0d0"/><path d="M738 922h2v1h-2Z" fill="#e4e4e0"/><path d="M284 922h2v1h-2Z" fill="#dcdcd8"/><path d="M280 922h2v1h-2Z" fill="#c0c0c0"/><path d="M276 922h2v1h-2Z" fill="#909088"/><path d="M274 922h2v1h-2Z" fill="#484848"/><path d="M759 921h2v1h-2Z" fill="#181810"/><path d="M755 921h2v1h-2Z" fill="#b0b0a8"/><path d="M753 921h2v1h-2Z" fill="#d0d0c8"/><path d="M270 921h2v1h-2Z" fill="#d8d8d8"/><path d="M266 921h2v1h-2Z" fill="#989898"/><path d="M264 921h2v1h-2Z" fill="#484848"/><path d="M766 920h2v1h-2Z" fill="#282820"/><path d="M258 920h2v1h-2Z" fill="#a0a0a0"/><path d="M771 919h2v1h-2Z" fill="#909088"/><path d="M769 919h2v1h-2Z" fill="#c8c8c8"/><path d="M255 919h2v1h-2Z" fill="#f0e8e8"/><path d="M251 919h2v1h-2Z" fill="#909088"/><path d="M777 918h2v1h-2Z" fill="#787870"/><path d="M246 918h2v1h-2Z" fill="#b0b0b0"/><path d="M243 917h2v1h-2Z" fill="#e8e0e0"/><path d="M241 917h2v1h-2Z" fill="#a8a8a8"/><path d="M786 916h2v1h-2Z" fill="#909088"/><path d="M237 916h2v1h-2Z" fill="#c0c0c0"/><path d="M791 915h2v1h-2Z" fill="#181810"/><path d="M233 915h2v1h-2Z" fill="#c8c8c8"/><path d="M794 914h2v1h-2Z" fill="#484848"/><path d="M229 914h2v1h-2Z" fill="#b0b0b0"/><path d="M226 913h2v1h-2Z" fill="#c8c8c8"/><path d="M801 912h2v1h-2Z" fill="#383830"/><path d="M223 912h2v1h-2Z" fill="#d8d8d8"/><path d="M220 911h2v1h-2ZM217 910h2v1h-2Z" fill="#e0e0d8"/><path d="M214 909h2v1h-2Z" fill="#d0d0d0"/><path d="M212 908h2v1h-2Z" fill="#e8e8e0"/><path d="M209 907h2v1h-2Z" fill="#d8d8d0"/><path d="M207 906h2v1h-2Z" fill="#e8e8e0"/><path d="M198 902h2v1h-2Z" fill="#d8d8d0"/><path d="M197 901h2v1h-2ZM193 899h2v1h-2Z" fill="#f0f0e8"/><path d="M191 898h2v1h-2Z" fill="#e8e8e0"/><path d="M189 897h2v1h-2Z" fill="#e0e0d8"/><path d="M184 894h2v1h-2ZM181 892h2v1h-2ZM178 890h2v1h-2ZM175 888h2v1h-2Z" fill="#e8e8e0"/><path d="M166 881h2v1h-2Z" fill="#f0e8e8"/><path d="M107 784h1v2h-1Z" fill="#909088"/><path d="M106 780h1v2h-1Z" fill="#383830"/><path d="M918 777h1v2h-1Z" fill="#909088"/><path d="M921 755h1v2h-1ZM102 750h1v2h-1Z" fill="#c8c8c8"/><path d="M101 742h1v2h-1Z" fill="#383830"/><path d="M922 739h1v2h-1Z" fill="#e8e8e4"/><path d="M101 737h1v2h-1Z" fill="#c0c0b8"/><path d="M923 715h1v2h-1Z" fill="#c8c8c8"/><path d="M100 715h1v2h-1Z" fill="#787870"/><path d="M100 708h1v2h-1Z" fill="#a8a8a8"/><path d="M100 704h1v2h-1Z" fill="#b8b8b4"/><path d="M880 357h2v1h-2ZM806 357h2v1h-2ZM658 357h2v1h-2ZM621 357h2v1h-2ZM584 357h2v1h-2ZM547 357h2v1h-2ZM362 357h2v1h-2ZM288 357h2v1h-2Z" fill="#d8d8d4"/><path d="M101 356h2v1h-2ZM911 346h1v2h-1ZM891 346h1v2h-1ZM874 346h1v2h-1ZM854 346h1v2h-1ZM837 346h1v2h-1ZM817 346h1v2h-1ZM800 346h1v2h-1ZM780 346h1v2h-1ZM763 346h1v2h-1ZM743 346h1v2h-1ZM726 346h1v2h-1ZM706 346h1v2h-1ZM689 346h1v2h-1ZM669 346h1v2h-1ZM652 346h1v2h-1ZM632 346h1v2h-1ZM615 346h1v2h-1ZM595 346h1v2h-1ZM578 346h1v2h-1ZM558 346h1v2h-1ZM541 346h1v2h-1ZM521 346h1v2h-1ZM504 346h1v2h-1ZM484 346h1v2h-1ZM467 346h1v2h-1ZM447 346h1v2h-1ZM430 346h1v2h-1ZM410 346h1v2h-1ZM393 346h1v2h-1ZM373 346h1v2h-1ZM356 346h1v2h-1ZM336 346h1v2h-1ZM319 346h1v2h-1ZM299 346h1v2h-1ZM282 346h1v2h-1ZM262 346h1v2h-1ZM245 346h1v2h-1ZM225 346h1v2h-1ZM208 346h1v2h-1ZM188 346h1v2h-1ZM171 346h1v2h-1ZM151 346h1v2h-1ZM134 346h1v2h-1ZM114 346h1v2h-1Z" fill="#c0c0c0"/><path d="M699 340h2v1h-2ZM547 340h2v1h-2ZM288 340h2v1h-2Z" fill="#d0d0cc"/><path d="M100 323h1v2h-1Z" fill="#a8a8a8"/><path d="M100 319h1v2h-1Z" fill="#989898"/><path d="M923 312h1v2h-1Z" fill="#a8a8a8"/><path d="M923 308h1v2h-1Z" fill="#989898"/><path d="M100 301h1v2h-1Z" fill="#282820"/><path d="M923 292h1v2h-1Z" fill="#a88828"/><path d="M923 288h1v2h-1Z" fill="#605018"/><path d="M101 282h1v2h-1Z" fill="#a88828"/><path d="M101 280h1v2h-1Z" fill="#605018"/><path d="M922 274h1v2h-1ZM102 269h1v2h-1ZM921 264h1v2h-1Z" fill="#a88828"/><path d="M103 260h1v2h-1Z" fill="#b09830"/><path d="M920 257h1v2h-1Z" fill="#b8a050"/><path d="M104 254h1v2h-1Z" fill="#e0a830"/><path d="M919 250h1v2h-1Z" fill="#b09830"/><path d="M105 248h1v2h-1ZM918 245h1v2h-1ZM106 243h1v2h-1Z" fill="#e0a830"/><path d="M917 240h1v2h-1Z" fill="#c0a860"/><path d="M107 238h1v2h-1Z" fill="#e0a830"/><path d="M916 236h1v2h-1ZM108 234h1v2h-1ZM915 232h1v2h-1ZM109 230h1v2h-1Z" fill="#f8b838"/><path d="M914 229h1v2h-1ZM110 228h1v2h-1Z" fill="#f8c840"/><path d="M913 225h1v2h-1Z" fill="#f8c030"/><path d="M111 223h1v2h-1Z" fill="#f8b838"/><path d="M912 222h1v2h-1Z" fill="#f8c840"/><path d="M112 220h1v2h-1Z" fill="#f8c048"/><path d="M911 219h1v2h-1Z" fill="#f8c840"/><path d="M113 217h1v2h-1Z" fill="#f8c048"/><path d="M910 216h1v2h-1Z" fill="#f8c840"/><path d="M114 215h1v2h-1Z" fill="#f8c040"/><path d="M909 213h1v2h-1ZM115 212h1v2h-1ZM907 208h1v2h-1ZM117 207h1v2h-1ZM906 206h1v2h-1Z" fill="#f8c840"/><path d="M124 193h1v2h-1ZM899 192h1v2h-1ZM125 191h1v2h-1ZM898 190h1v2h-1Z" fill="#f8d048"/><path d="M128 186h1v2h-1ZM895 185h1v2h-1Z" fill="#f8c848"/><path d="M129 184h1v2h-1ZM131 181h1v2h-1ZM133 178h1v2h-1ZM135 175h1v2h-1Z" fill="#f8d048"/><path d="M871 154h1v2h-1Z" fill="#f8d850"/><path d="M184 129h2v1h-2ZM189 126h2v1h-2Z" fill="#f8d858"/><path d="M231 108h2v1h-2ZM235 107h2v1h-2ZM783 106h2v1h-2ZM240 106h2v1h-2ZM778 105h2v1h-2ZM245 105h2v1h-2ZM251 104h2v1h-2Z"/><path d="M735 923h1v1h-1Z" fill="#282820"/><path d="M732 923h1v1h-1Z" fill="#606060"/><path d="M727 923h1v1h-1Z" fill="#a0a098"/><path d="M726 923h1v1h-1Z" fill="#a8a8a8"/><path d="M302 923h1v1h-1Z" fill="#c0c0c0"/><path d="M301 923h1v1h-1Z" fill="#b8b8b8"/><path d="M297 923h1v1h-1Z" fill="#a0a098"/><path d="M294 923h1v1h-1Z" fill="#787870"/><path d="M292 923h1v1h-1Z" fill="#606060"/><path d="M291 923h1v1h-1Z" fill="#484848"/><path d="M289 923h1v1h-1Z" fill="#282820"/><path d="M749 922h1v1h-1Z" fill="#484848"/><path d="M748 922h1v1h-1Z" fill="#787870"/><path d="M746 922h1v1h-1Z" fill="#a0a098"/><path d="M744 922h1v1h-1Z" fill="#b8b8b0"/><path d="M742 922h1v1h-1Z" fill="#c8c8c8"/><path d="M740 922h1v1h-1Z" fill="#d8d8d8"/><path d="M286 922h1v1h-1Z" fill="#e8e8e0"/><path d="M282 922h1v1h-1Z" fill="#d0d0c8"/><path d="M280 922h1v1h-1Z" fill="#b8b8b8"/><path d="M278 922h1v1h-1Z" fill="#a0a0a0"/><path d="M276 922h1v1h-1Z" fill="#787870"/><path d="M274 922h1v1h-1Z" fill="#282820"/><path d="M759 921h1v1h-1Z" fill="#484848"/><path d="M757 921h1v1h-1Z" fill="#909088"/><path d="M755 921h1v1h-1Z" fill="#c0c0b8"/><path d="M753 921h1v1h-1Z" fill="#d8d8d8"/><path d="M752 921h1v1h-1Z" fill="#e8e0e0"/><path d="M272 921h1v1h-1Z" fill="#e8e8e0"/><path d="M270 921h1v1h-1Z" fill="#d0d0c8"/><path d="M268 921h1v1h-1Z" fill="#b0b0a8"/><path d="M266 921h1v1h-1Z" fill="#787870"/><path d="M264 921h1v1h-1Z" fill="#282820"/><path d="M766 920h1v1h-1Z" fill="#686868"/><path d="M765 920h1v1h-1Z" fill="#989898"/><path d="M763 920h1v1h-1Z" fill="#d0d0c8"/><path d="M762 920h1v1h-1Z" fill="#e0e0e0"/><path d="M262 920h1v1h-1Z" fill="#e8e0e0"/><path d="M260 920h1v1h-1Z" fill="#c0c0b8"/><path d="M258 920h1v1h-1Z" fill="#787870"/><path d="M257 920h1v1h-1Z" fill="#383830"/><path d="M773 919h1v1h-1Z" fill="#484848"/><path d="M771 919h1v1h-1Z" fill="#b0b0a8"/><path d="M769 919h1v1h-1Z" fill="#d8d8d8"/><path d="M255 919h1v1h-1Z" fill="#e0e0d8"/><path d="M253 919h1v1h-1Z" fill="#b8b8b0"/><path d="M251 919h1v1h-1Z" fill="#606060"/><path d="M250 919h1v1h-1ZM779 918h1v1h-1Z" fill="#181810"/><path d="M777 918h1v1h-1Z" fill="#a8a8a8"/><path d="M776 918h1v1h-1Z" fill="#d0d0c8"/><path d="M775 918h1v1h-1Z" fill="#e8e0e0"/><path d="M248 918h1v1h-1Z" fill="#d0d0d0"/><path d="M246 918h1v1h-1Z" fill="#787870"/><path d="M245 918h1v1h-1Z" fill="#282820"/><path d="M783 917h1v1h-1Z" fill="#484848"/><path d="M782 917h1v1h-1Z" fill="#a0a098"/><path d="M781 917h1v1h-1Z" fill="#c8c8c8"/><path d="M780 917h1v1h-1Z" fill="#e0e0d8"/><path d="M243 917h1v1h-1Z" fill="#c8c8c8"/><path d="M241 917h1v1h-1Z" fill="#686868"/><path d="M788 916h1v1h-1Z" fill="#383830"/><path d="M786 916h1v1h-1Z" fill="#b8b8b8"/><path d="M785 916h1v1h-1Z" fill="#d8d8d0"/><path d="M239 916h1v1h-1Z" fill="#e0e0d8"/><path d="M237 916h1v1h-1Z" fill="#989898"/><path d="M236 916h1v1h-1Z" fill="#484848"/><path d="M791 915h1v1h-1Z" fill="#787870"/><path d="M790 915h1v1h-1Z" fill="#c0c0b8"/><path d="M789 915h1v1h-1Z" fill="#e0e0e0"/><path d="M235 915h1v1h-1Z" fill="#e8e8e0"/><path d="M233 915h1v1h-1Z" fill="#909088"/><path d="M232 915h1v1h-1Z" fill="#282820"/><path d="M794 914h1v1h-1Z" fill="#b8a050"/><path d="M793 914h1v1h-1Z" fill="#d0d0d0"/><path d="M231 914h1v1h-1Z" fill="#d8d8d8"/><path d="M229 914h1v1h-1Z" fill="#606060"/><path d="M798 913h1v1h-1Z" fill="#787870"/><path d="M797 913h1v1h-1Z" fill="#c0c0b8"/><path d="M796 913h1v1h-1Z" fill="#e0e0e0"/><path d="M228 913h1v1h-1Z" fill="#e8e8e0"/><path d="M226 913h1v1h-1Z" fill="#909088"/><path d="M225 913h1v1h-1Z" fill="#282820"/><path d="M801 912h1v1h-1Z" fill="#b8a050"/><path d="M800 912h1v1h-1Z" fill="#d0d0d0"/><path d="M223 912h1v1h-1Z" fill="#b0b0b0"/><path d="M222 912h1v1h-1Z" fill="#484848"/><path d="M805 911h1v1h-1Z" fill="#282820"/><path d="M804 911h1v1h-1Z" fill="#a0a098"/><path d="M803 911h1v1h-1Z" fill="#d8d8d0"/><path d="M801 911h1v1h-1Z" fill="#f0f0f0"/><path d="M220 911h1v1h-1Z" fill="#b0b0b0"/><path d="M219 911h1v1h-1Z" fill="#484848"/><path d="M808 910h1v1h-1Z" fill="#181810"/><path d="M807 910h1v1h-1Z" fill="#909088"/><path d="M806 910h1v1h-1Z" fill="#d0d0d0"/><path d="M217 910h1v1h-1Z" fill="#a8a8a8"/><path d="M216 910h1v1h-1Z" fill="#383830"/><path d="M810 909h1v1h-1Z" fill="#606060"/><path d="M809 909h1v1h-1Z" fill="#c0c0c0"/><path d="M214 909h1v1h-1Z" fill="#909088"/><path d="M813 908h1v1h-1Z" fill="#282820"/><path d="M812 908h1v1h-1Z" fill="#a8a8a8"/><path d="M212 908h1v1h-1Z" fill="#b8b8b8"/><path d="M211 908h1v1h-1Z" fill="#484848"/><path d="M815 907h1v1h-1Z" fill="#606060"/><path d="M814 907h1v1h-1Z" fill="#c8c8c8"/><path d="M813 907h1v1h-1Z" fill="#f0f0e8"/><path d="M209 907h1v1h-1ZM817 906h1v1h-1Z" fill="#909088"/><path d="M816 906h1v1h-1Z" fill="#d8d8d8"/><path d="M207 906h1v1h-1Z" fill="#a8a8a8"/><path d="M206 906h1v1h-1ZM820 905h1v1h-1Z" fill="#282820"/><path d="M819 905h1v1h-1Z" fill="#a8a8a8"/><path d="M205 905h1v1h-1Z" fill="#c0c0c0"/><path d="M204 905h1v1h-1Z" fill="#484848"/><path d="M822 904h1v1h-1Z" fill="#282820"/><path d="M821 904h1v1h-1Z" fill="#b8b8b8"/><path d="M203 904h1v1h-1Z" fill="#d0d0c8"/><path d="M202 904h1v1h-1Z" fill="#606060"/><path d="M824 903h1v1h-1Z" fill="#383830"/><path d="M823 903h1v1h-1Z" fill="#c0c0b8"/><path d="M201 903h1v1h-1Z" fill="#d0d0d0"/><path d="M200 903h1v1h-1Z" fill="#686868"/><path d="M826 902h1v1h-1Z" fill="#484848"/><path d="M825 902h1v1h-1Z" fill="#c0c0c0"/><path d="M198 902h1v1h-1Z" fill="#787870"/><path d="M828 901h1v1h-1Z" fill="#282820"/><path d="M827 901h1v1h-1Z" fill="#c0c0b8"/><path d="M197 901h1v1h-1Z" fill="#d8d8d0"/><path d="M196 901h1v1h-1Z" fill="#606060"/><path d="M829 900h1v1h-1Z" fill="#a8a8a8"/><path d="M828 900h1v1h-1Z" fill="#e8e8e8"/><path d="M195 900h1v1h-1Z" fill="#c8c8c8"/><path d="M194 900h1v1h-1Z" fill="#383830"/><path d="M831 899h1v1h-1Z" fill="#909088"/><path d="M830 899h1v1h-1Z" fill="#e8e0e0"/><path d="M193 899h1v1h-1Z" fill="#b8b0b0"/><path d="M192 899h1v1h-1Z" fill="#181810"/><path d="M833 898h1v1h-1Z" fill="#686868"/><path d="M832 898h1v1h-1Z" fill="#d8d8d8"/><path d="M191 898h1v1h-1Z" fill="#a0a098"/><path d="M835 897h1v1h-1Z" fill="#484848"/><path d="M834 897h1v1h-1Z" fill="#c8c8c8"/><path d="M189 897h1v1h-1Z" fill="#787870"/><path d="M837 896h1v1h-1Z" fill="#181810"/><path d="M836 896h1v1h-1Z" fill="#b8b8b8"/><path d="M188 896h1v1h-1Z" fill="#d0d0d0"/><path d="M187 896h1v1h-1Z" fill="#484848"/><path d="M838 895h1v1h-1Z" fill="#a0a098"/><path d="M837 895h1v1h-1Z" fill="#e8e8e0"/><path d="M186 895h1v1h-1Z" fill="#c0c0c0"/><path d="M185 895h1v1h-1Z" fill="#282820"/><path d="M840 894h1v1h-1Z" fill="#484848"/><path d="M184 894h1v1h-1Z" fill="#909088"/><path d="M841 893h1v1h-1Z" fill="#a0a0a0"/><path d="M183 893h1v1h-1Z" fill="#c8c8c8"/><path d="M182 893h1v1h-1Z" fill="#282820"/><path d="M843 892h1v1h-1Z" fill="#484848"/><path d="M181 892h1v1h-1Z" fill="#909088"/><path d="M844 891h1v1h-1Z" fill="#a0a098"/><path d="M180 891h1v1h-1Z" fill="#c8c8c8"/><path d="M179 891h1v1h-1Z" fill="#282820"/><path d="M846 890h1v1h-1Z" fill="#484848"/><path d="M845 890h1v1h-1Z" fill="#d8d8d0"/><path d="M178 890h1v1h-1Z" fill="#909088"/><path d="M847 889h1v1h-1Z" fill="#a0a098"/><path d="M177 889h1v1h-1Z" fill="#c8c8c8"/><path d="M176 889h1v1h-1Z" fill="#282820"/><path d="M849 888h1v1h-1Z" fill="#383830"/><path d="M848 888h1v1h-1Z" fill="#d8d8d0"/><path d="M175 888h1v1h-1ZM850 887h1v1h-1Z" fill="#909088"/><path d="M174 887h1v1h-1Z" fill="#c0c0c0"/><path d="M851 886h1v1h-1Z" fill="#b8b8b0"/><path d="M173 886h1v1h-1Z" fill="#d8d8d8"/><path d="M172 886h1v1h-1Z" fill="#383830"/><path d="M853 885h1v1h-1Z" fill="#282820"/><path d="M852 885h1v1h-1Z" fill="#d8d8d0"/><path d="M172 885h1v1h-1Z" fill="#e8e8e8"/><path d="M171 885h1v1h-1Z" fill="#787870"/><path d="M854 884h1v1h-1Z" fill="#706830"/><path d="M853 884h1v1h-1Z" fill="#e8e8e0"/><path d="M170 884h1v1h-1Z" fill="#a8a8a8"/><path d="M855 883h1v1h-1Z" fill="#909088"/><path d="M169 883h1v1h-1Z" fill="#c8c8c8"/><path d="M168 883h1v1h-1Z" fill="#181810"/><path d="M856 882h1v1h-1Z" fill="#c0c0c0"/><path d="M168 882h1v1h-1Z" fill="#e0e0e0"/><path d="M167 882h1v1h-1Z" fill="#484848"/><path d="M858 881h1v1h-1Z" fill="#383830"/><path d="M857 881h1v1h-1Z" fill="#d8d8d8"/><path d="M166 881h1v1h-1Z" fill="#909088"/><path d="M859 880h1v1h-1Z" fill="#787870"/><path d="M858 880h1v1h-1Z" fill="#e8e8e0"/><path d="M165 880h1v1h-1Z" fill="#b0b0b0"/><path d="M860 879h1v1h-1Z" fill="#a0a098"/><path d="M164 879h1v1h-1Z" fill="#d0d0d0"/><path d="M163 879h1v1h-1Z" fill="#181810"/><path d="M861 878h1v1h-1Z" fill="#b0b0a8"/><path d="M163 878h1v1h-1Z" fill="#e0e0d8"/><path d="M162 878h1v1h-1Z" fill="#282820"/><path d="M862 877h1v1h-1Z" fill="#c0c0b8"/><path d="M162 877h1v1h-1Z" fill="#e0e0e0"/><path d="M161 877h1v1h-1Z" fill="#383830"/><path d="M863 876h1v1h-1Z" fill="#c8c8c8"/><path d="M161 876h1v1h-1Z" fill="#e8e8e0"/><path d="M160 876h1v1h-1Z" fill="#484848"/><path d="M865 875h1v1h-1Z" fill="#181810"/><path d="M864 875h1v1h-1Z" fill="#d0d0d0"/><path d="M160 875h1v1h-1Z" fill="#e8e8e8"/><path d="M159 875h1v1h-1Z" fill="#606060"/><path d="M866 874h1v1h-1Z" fill="#282820"/><path d="M865 874h1v1h-1Z" fill="#d8d8d8"/><path d="M158 874h1v1h-1Z" fill="#787870"/><path d="M867 873h1v1h-1Z" fill="#383830"/><path d="M866 873h1v1h-1Z" fill="#e0e0d8"/><path d="M157 873h1v1h-1Z" fill="#909088"/><path d="M868 872h1v1h-1Z" fill="#484848"/><path d="M867 872h1v1h-1Z" fill="#e0e0e0"/><path d="M156 872h1v1h-1Z" fill="#989898"/><path d="M869 871h1v1h-1Z" fill="#484848"/><path d="M868 871h1v1h-1Z" fill="#e8e8e0"/><path d="M155 871h1v1h-1Z" fill="#a8a8a8"/><path d="M870 870h1v1h-1Z" fill="#606060"/><path d="M869 870h1v1h-1Z" fill="#e8e8e8"/><path d="M154 870h1v1h-1Z" fill="#b8b8b0"/><path d="M871 869h1v1h-1Z" fill="#484848"/><path d="M870 869h1v1h-1Z" fill="#e8e8e8"/><path d="M153 869h1v1h-1Z" fill="#b0b0a8"/><path d="M872 868h1v1h-1Z" fill="#484848"/><path d="M871 868h1v1h-1Z" fill="#e8e8e0"/><path d="M152 868h1v1h-1Z" fill="#a0a0a0"/><path d="M873 867h1v1h-1Z" fill="#383830"/><path d="M872 867h1v1h-1Z" fill="#e8e0e0"/><path d="M151 867h1v1h-1Z" fill="#909088"/><path d="M874 866h1v1h-1Z" fill="#181810"/><path d="M873 866h1v1h-1Z" fill="#e0e0d8"/><path d="M150 866h1v1h-1Z" fill="#787870"/><path d="M875 865h1v1h-1Z" fill="#181810"/><path d="M874 865h1v1h-1Z" fill="#d8d8d8"/><path d="M149 865h1v1h-1Z" fill="#686868"/><path d="M875 864h1v1h-1Z" fill="#d0d0d0"/><path d="M149 864h1v1h-1Z" fill="#e8e8e8"/><path d="M148 864h1v1h-1Z" fill="#484848"/><path d="M876 863h1v1h-1Z" fill="#c8c8c8"/><path d="M148 863h1v1h-1Z" fill="#e8e8e0"/><path d="M147 863h1v1h-1Z" fill="#484848"/><path d="M877 862h1v1h-1Z" fill="#c0c0b8"/><path d="M147 862h1v1h-1Z" fill="#e8e8e0"/><path d="M146 862h1v1h-1Z" fill="#383830"/><path d="M878 861h1v1h-1Z" fill="#b0b0a8"/><path d="M146 861h1v1h-1Z" fill="#e0e0e0"/><path d="M145 861h1v1h-1Z" fill="#282820"/><path d="M879 860h1v1h-1Z" fill="#a0a098"/><path d="M145 860h1v1h-1Z" fill="#d8d8d8"/><path d="M880 859h1v1h-1Z" fill="#787870"/><path d="M144 859h1v1h-1Z" fill="#c8c8c8"/><path d="M881 858h1v1h-1Z" fill="#383830"/><path d="M880 858h1v1h-1Z" fill="#e8e8e0"/><path d="M143 858h1v1h-1Z" fill="#a0a0a0"/><path d="M881 857h1v1h-1Z" fill="#d8d8d8"/><path d="M142 857h1v1h-1Z" fill="#686868"/><path d="M882 856h1v1h-1Z" fill="#c0c0c0"/><path d="M142 856h1v1h-1Z" fill="#e8e8e0"/><path d="M141 856h1v1h-1Z" fill="#383830"/><path d="M883 855h1v1h-1Z" fill="#909088"/><path d="M141 855h1v1h-1Z" fill="#d8d8d8"/><path d="M884 854h1v1h-1Z" fill="#706830"/><path d="M140 854h1v1h-1Z" fill="#c0c0b8"/><path d="M885 853h1v1h-1Z" fill="#282820"/><path d="M884 853h1v1h-1Z" fill="#e8e8e0"/><path d="M139 853h1v1h-1Z" fill="#909088"/><path d="M885 852h1v1h-1Z" fill="#d8d8d0"/><path d="M138 852h1v1h-1Z" fill="#706830"/><path d="M886 851h1v1h-1Z" fill="#b8b8b0"/><path d="M138 851h1v1h-1Z" fill="#e8e8e0"/><path d="M137 851h1v1h-1Z" fill="#282820"/><path d="M887 850h1v1h-1Z" fill="#909088"/><path d="M137 850h1v1h-1Z" fill="#d8d8d0"/><path d="M888 849h1v1h-1Z" fill="#484848"/><path d="M136 849h1v1h-1Z" fill="#b0b0b0"/><path d="M888 848h1v1h-1Z" fill="#d8d8d0"/><path d="M135 848h1v1h-1Z" fill="#484848"/><path d="M889 847h1v1h-1Z" fill="#a0a098"/><path d="M135 847h1v1h-1Z" fill="#e0e0d8"/><path d="M890 846h1v1h-1Z" fill="#484848"/><path d="M134 846h1v1h-1Z" fill="#b8b0b0"/><path d="M890 845h1v1h-1Z" fill="#d8d8d0"/><path d="M133 845h1v1h-1Z" fill="#706830"/><path d="M891 844h1v1h-1Z" fill="#a0a0a0"/><path d="M133 844h1v1h-1Z" fill="#e0e0d8"/><path d="M892 843h1v1h-1Z" fill="#484848"/><path d="M132 843h1v1h-1Z" fill="#b8b8b0"/><path d="M892 842h1v1h-1Z" fill="#d8d8d0"/><path d="M131 842h1v1h-1Z" fill="#606060"/><path d="M893 841h1v1h-1Z" fill="#a0a0a0"/><path d="M131 841h1v1h-1Z" fill="#e0e0d8"/><path d="M894 840h1v1h-1Z" fill="#484848"/><path d="M130 840h1v1h-1Z" fill="#b8b8b0"/><path d="M894 839h1v1h-1Z" fill="#d8d8d0"/><path d="M129 839h1v1h-1Z" fill="#606060"/><path d="M895 838h1v1h-1Z" fill="#a0a0a0"/><path d="M129 838h1v1h-1Z" fill="#e0e0e0"/><path d="M896 837h1v1h-1Z" fill="#181810"/><path d="M895 837h1v1h-1Z" fill="#e8e8e8"/><path d="M128 837h1v1h-1Z" fill="#a8a8a8"/><path d="M896 836h1v1h-1Z" fill="#c0c0b8"/><path d="M128 836h1v1h-1Z" fill="#e8e8e8"/><path d="M127 836h1v1h-1Z" fill="#181810"/><path d="M897 835h1v1h-1Z" fill="#484848"/><path d="M127 835h1v1h-1Z" fill="#c0c0b8"/><path d="M897 834h1v1h-1Z" fill="#d0d0c8"/><path d="M126 834h1v1h-1Z" fill="#484848"/><path d="M898 833h1v1h-1Z" fill="#686868"/><path d="M126 833h1v1h-1Z" fill="#d0d0c8"/><path d="M898 832h1v1h-1Z" fill="#d8d8d8"/><path d="M125 832h1v1h-1Z" fill="#686868"/><path d="M899 831h1v1h-1Z" fill="#909088"/><path d="M125 831h1v1h-1Z" fill="#d8d8d8"/><path d="M899 830h1v1h-1Z" fill="#e8e8e0"/><path d="M124 830h1v1h-1Z" fill="#909088"/><path d="M900 829h1v1h-1Z" fill="#b0b0a8"/><path d="M124 829h1v1h-1Z" fill="#e8e8e0"/><path d="M901 828h1v1h-1Z" fill="#282820"/><path d="M900 828h1v1h-1Z" fill="#e8e8e8"/><path d="M123 828h1v1h-1Z" fill="#b0b0b0"/><path d="M901 827h1v1h-1Z" fill="#c0c0c0"/><path d="M122 827h1v1h-1Z" fill="#282820"/><path d="M902 826h1v1h-1Z" fill="#484848"/><path d="M122 826h1v1h-1Z" fill="#c0c0c0"/><path d="M902 825h1v1h-1Z" fill="#c8c8c8"/><path d="M121 825h1v1h-1ZM903 824h1v1h-1Z" fill="#383830"/><path d="M121 824h1v1h-1Z" fill="#c0c0b8"/><path d="M903 823h1v1h-1Z" fill="#c0c0c0"/><path d="M120 823h1v1h-1Z" fill="#282820"/><path d="M904 822h1v1h-1Z" fill="#383830"/><path d="M120 822h1v1h-1Z" fill="#b8b8b8"/><path d="M904 821h1v1h-1Z" fill="#c0c0b8"/><path d="M120 821h1v1h-1Z" fill="#e8e8e8"/><path d="M119 821h1v1h-1Z" fill="#181810"/><path d="M905 820h1v1h-1Z" fill="#282820"/><path d="M119 820h1v1h-1ZM905 819h1v1h-1Z" fill="#b0b0b0"/><path d="M119 819h1v1h-1Z" fill="#e8e8e8"/><path d="M905 818h1v1h-1Z" fill="#e8e8e0"/><path d="M118 818h1v1h-1Z" fill="#989898"/><path d="M906 817h1v1h-1Z" fill="#909088"/><path d="M118 817h1v1h-1ZM906 816h1v1h-1Z" fill="#e0e0d8"/><path d="M117 816h1v1h-1Z" fill="#787870"/><path d="M907 815h1v1h-1Z" fill="#606060"/><path d="M117 815h1v1h-1Z" fill="#d0d0d0"/><path d="M907 814h1v1h-1Z" fill="#d0d0c8"/><path d="M116 814h1v1h-1Z" fill="#383830"/><path d="M908 813h1v1h-1Z" fill="#282820"/><path d="M116 813h1v1h-1Z" fill="#b8b8b8"/><path d="M908 812h1v1h-1Z" fill="#b0b0b0"/><path d="M116 812h1v1h-1Z" fill="#e8e8e0"/><path d="M908 811h1v1h-1Z" fill="#e0e0e0"/><path d="M115 811h1v1h-1Z" fill="#909088"/><path d="M909 810h1v1h-1Z" fill="#686868"/><path d="M115 810h1v1h-1Z" fill="#d8d8d0"/><path d="M909 809h1v1h-1Z" fill="#d0d0c8"/><path d="M114 809h1v1h-1Z" fill="#383830"/><path d="M910 808h1v1h-1Z" fill="#181810"/><path d="M114 808h1v1h-1Z" fill="#b8b8b0"/><path d="M910 807h1v1h-1Z" fill="#a0a098"/><path d="M114 807h1v1h-1Z" fill="#e0e0e0"/><path d="M910 806h1v1h-1Z" fill="#d8d8d8"/><path d="M113 806h1v1h-1Z" fill="#484848"/><path d="M911 805h1v1h-1Z" fill="#282820"/><path d="M113 805h1v1h-1Z" fill="#c0c0c0"/><path d="M911 804h1v1h-1Z" fill="#a8a8a8"/><path d="M113 804h1v1h-1Z" fill="#e8e8e0"/><path d="M911 803h1v1h-1Z" fill="#e0e0d8"/><path d="M112 803h1v1h-1Z" fill="#787870"/><path d="M912 802h1v1h-1Z" fill="#383830"/><path d="M112 802h1v1h-1Z" fill="#c8c8c8"/><path d="M912 801h1v1h-1Z" fill="#b0b0b0"/><path d="M112 801h1v1h-1Z" fill="#e8e8e8"/><path d="M912 800h1v1h-1Z" fill="#d8d8d8"/><path d="M111 800h1v1h-1Z" fill="#606060"/><path d="M111 799h1v1h-1Z" fill="#b8b8b8"/><path d="M913 798h1v1h-1Z" fill="#909088"/><path d="M111 798h1v1h-1Z" fill="#e0e0d8"/><path d="M913 797h1v1h-1Z" fill="#c8c8c8"/><path d="M110 797h1v1h-1Z" fill="#181810"/><path d="M913 796h1v1h-1Z" fill="#e8e8e0"/><path d="M110 796h1v1h-1Z" fill="#989898"/><path d="M914 795h1v1h-1Z" fill="#484848"/><path d="M110 795h1v1h-1Z" fill="#d0d0c8"/><path d="M914 794h1v1h-1Z" fill="#b8b0b0"/><path d="M110 794h1v1h-1Z" fill="#e8e8e8"/><path d="M914 793h1v1h-1Z" fill="#d8d8d8"/><path d="M109 793h1v1h-1Z" fill="#686868"/><path d="M109 792h1v1h-1Z" fill="#c0c0b8"/><path d="M915 791h1v1h-1Z" fill="#909088"/><path d="M109 791h1v1h-1Z" fill="#e0e0d8"/><path d="M915 790h1v1h-1Z" fill="#c8c8c8"/><path d="M108 790h1v1h-1Z" fill="#282820"/><path d="M915 789h1v1h-1Z" fill="#e8e8e0"/><path d="M108 789h1v1h-1Z" fill="#a0a098"/><path d="M916 788h1v1h-1Z" fill="#484848"/><path d="M108 788h1v1h-1Z" fill="#d0d0c8"/><path d="M916 787h1v1h-1Z" fill="#a0a0a0"/><path d="M108 787h1v1h-1Z" fill="#e8e8e0"/><path d="M916 786h1v1h-1Z" fill="#c8c8c8"/><path d="M916 785h1v1h-1Z" fill="#e0e0d8"/><path d="M107 784h1v1h-1Z" fill="#b8b8b8"/><path d="M917 783h1v1h-1Z" fill="#686868"/><path d="M107 783h1v1h-1Z" fill="#d8d8d0"/><path d="M917 782h1v1h-1Z" fill="#b0b0b0"/><path d="M107 782h1v1h-1Z" fill="#e8e8e8"/><path d="M917 781h1v1h-1Z" fill="#d0d0d0"/><path d="M917 780h1v1h-1Z" fill="#e8e8e0"/><path d="M106 780h1v1h-1Z" fill="#909088"/><path d="M918 779h1v1h-1Z" fill="#181810"/><path d="M106 779h1v1h-1Z" fill="#c8c8c8"/><path d="M106 778h1v1h-1Z" fill="#e0e0d8"/><path d="M918 777h1v1h-1Z" fill="#c0c0b8"/><path d="M918 776h1v1h-1Z" fill="#d8d8d8"/><path d="M105 776h1v1h-1Z" fill="#706830"/><path d="M918 775h1v1h-1Z" fill="#e8e8e8"/><path d="M105 775h1v1h-1Z" fill="#b0b0a8"/><path d="M919 774h1v1h-1Z" fill="#181810"/><path d="M919 773h1v1h-1Z" fill="#787870"/><path d="M105 773h1v1h-1Z" fill="#d8d8d8"/><path d="M919 772h1v1h-1Z" fill="#a8a8a8"/><path d="M105 772h1v1h-1Z" fill="#e8e8e0"/><path d="M919 770h1v1h-1Z" fill="#d8d8d0"/><path d="M104 770h1v1h-1Z" fill="#484848"/><path d="M919 769h1v1h-1Z" fill="#e8e8e0"/><path d="M104 769h1v1h-1Z" fill="#909088"/><path d="M104 768h1v1h-1Z" fill="#b8b8b8"/><path d="M920 767h1v1h-1Z" fill="#383830"/><path d="M920 766h1v1h-1Z" fill="#909088"/><path d="M104 766h1v1h-1Z" fill="#e0e0d8"/><path d="M920 765h1v1h-1Z" fill="#b8b8b0"/><path d="M104 765h1v1h-1Z" fill="#e8e8e8"/><path d="M920 763h1v1h-1Z" fill="#e0e0d8"/><path d="M103 763h1v1h-1Z" fill="#787870"/><path d="M920 762h1v1h-1Z" fill="#e8e8e8"/><path d="M103 761h1v1h-1Z" fill="#c0c0b8"/><path d="M921 760h1v1h-1Z" fill="#181810"/><path d="M103 760h1v1h-1Z" fill="#d0d0c8"/><path d="M921 759h1v1h-1Z" fill="#686868"/><path d="M103 758h1v1h-1Z" fill="#e0e0e0"/><path d="M921 757h1v1h-1Z" fill="#b0b0b0"/><path d="M103 757h1v1h-1Z" fill="#e8e8e8"/><path d="M921 755h1v1h-1Z" fill="#d0d0d0"/><path d="M102 755h1v1h-1Z" fill="#181810"/><path d="M921 754h1v1h-1Z" fill="#e0e0d8"/><path d="M102 754h1v1h-1Z" fill="#686868"/><path d="M102 752h1v1h-1Z" fill="#b0b0b0"/><path d="M922 750h1v1h-1Z" fill="#282820"/><path d="M102 750h1v1h-1Z" fill="#d0d0d0"/><path d="M922 749h1v1h-1Z" fill="#787870"/><path d="M102 749h1v1h-1Z" fill="#e0e0d8"/><path d="M922 748h1v1h-1Z" fill="#989898"/><path d="M922 746h1v1h-1Z" fill="#c0c0b8"/><path d="M922 745h1v1h-1Z" fill="#c8c8c8"/><path d="M922 743h1v1h-1Z" fill="#d8d8d0"/><path d="M101 742h1v1h-1Z" fill="#606060"/><path d="M101 741h1v1h-1Z" fill="#909088"/><path d="M101 739h1v1h-1Z" fill="#b0b0a8"/><path d="M101 737h1v1h-1Z" fill="#c8c8c8"/><path d="M101 736h1v1h-1Z" fill="#d0d0d0"/><path d="M923 735h1v1h-1Z" fill="#484848"/><path d="M923 734h1v1h-1Z" fill="#686868"/><path d="M923 732h1v1h-1Z" fill="#909088"/><path d="M923 731h1v1h-1Z" fill="#a0a098"/><path d="M923 729h1v1h-1Z" fill="#b0b0b0"/><path d="M923 728h1v1h-1Z" fill="#b8b8b8"/><path d="M923 725h1v1h-1Z" fill="#c8c8c8"/><path d="M100 722h1v1h-1Z" fill="#282820"/><path d="M100 719h1v1h-1Z" fill="#706830"/><path d="M100 712h1v1h-1Z" fill="#989898"/><path d="M100 710h1v1h-1Z" fill="#a8a8a8"/><path d="M100 708h1v1h-1Z" fill="#c0a860"/><path d="M922 357h1v1h-1ZM848 357h1v1h-1ZM774 357h1v1h-1ZM769 357h1v1h-1ZM737 357h1v1h-1ZM732 357h1v1h-1ZM695 357h1v1h-1ZM515 357h1v1h-1ZM510 357h1v1h-1ZM478 357h1v1h-1ZM473 357h1v1h-1ZM441 357h1v1h-1ZM436 357h1v1h-1ZM399 357h1v1h-1ZM325 357h1v1h-1ZM256 357h1v1h-1ZM251 357h1v1h-1ZM219 357h1v1h-1ZM214 357h1v1h-1ZM182 357h1v1h-1ZM145 357h1v1h-1ZM140 357h1v1h-1ZM103 357h1v1h-1Z" fill="#d8d8d8"/><path d="M915 356h1v1h-1ZM887 356h1v1h-1ZM878 356h1v1h-1ZM850 356h1v1h-1ZM841 356h1v1h-1ZM813 356h1v1h-1ZM804 356h1v1h-1ZM776 356h1v1h-1ZM767 356h1v1h-1ZM739 356h1v1h-1ZM730 356h1v1h-1ZM702 356h1v1h-1ZM693 356h1v1h-1ZM665 356h1v1h-1ZM656 356h1v1h-1ZM628 356h1v1h-1ZM619 356h1v1h-1ZM591 356h1v1h-1ZM582 356h1v1h-1ZM554 356h1v1h-1ZM545 356h1v1h-1ZM517 356h1v1h-1ZM508 356h1v1h-1ZM480 356h1v1h-1ZM471 356h1v1h-1ZM443 356h1v1h-1ZM434 356h1v1h-1ZM406 356h1v1h-1ZM397 356h1v1h-1ZM369 356h1v1h-1ZM360 356h1v1h-1ZM332 356h1v1h-1ZM323 356h1v1h-1ZM295 356h1v1h-1ZM286 356h1v1h-1ZM258 356h1v1h-1ZM249 356h1v1h-1ZM221 356h1v1h-1ZM212 356h1v1h-1ZM184 356h1v1h-1ZM175 356h1v1h-1ZM147 356h1v1h-1ZM138 356h1v1h-1ZM110 356h1v1h-1ZM101 356h1v1h-1Z" fill="#d0d0d0"/><path d="M851 355h1v1h-1ZM840 355h1v1h-1ZM740 355h1v1h-1ZM692 355h1v1h-1ZM618 355h1v1h-1ZM592 355h1v1h-1ZM581 355h1v1h-1ZM518 355h1v1h-1ZM481 355h1v1h-1ZM470 355h1v1h-1ZM433 355h1v1h-1ZM370 355h1v1h-1ZM359 355h1v1h-1ZM333 355h1v1h-1ZM259 355h1v1h-1ZM211 355h1v1h-1ZM111 355h1v1h-1ZM912 353h1v1h-1ZM890 353h1v1h-1ZM875 353h1v1h-1ZM853 353h1v1h-1ZM838 353h1v1h-1ZM816 353h1v1h-1ZM801 353h1v1h-1ZM779 353h1v1h-1ZM764 353h1v1h-1ZM742 353h1v1h-1ZM727 353h1v1h-1ZM705 353h1v1h-1ZM690 353h1v1h-1ZM668 353h1v1h-1ZM653 353h1v1h-1ZM631 353h1v1h-1ZM616 353h1v1h-1ZM594 353h1v1h-1ZM579 353h1v1h-1ZM557 353h1v1h-1ZM542 353h1v1h-1ZM520 353h1v1h-1ZM505 353h1v1h-1ZM483 353h1v1h-1ZM468 353h1v1h-1ZM446 353h1v1h-1ZM431 353h1v1h-1ZM409 353h1v1h-1ZM394 353h1v1h-1ZM372 353h1v1h-1ZM357 353h1v1h-1ZM335 353h1v1h-1ZM320 353h1v1h-1ZM298 353h1v1h-1ZM283 353h1v1h-1ZM261 353h1v1h-1ZM246 353h1v1h-1ZM224 353h1v1h-1ZM209 353h1v1h-1ZM187 353h1v1h-1ZM172 353h1v1h-1ZM150 353h1v1h-1ZM135 353h1v1h-1ZM113 353h1v1h-1Z" fill="#c8c8c8"/><path d="M911 352h1v1h-1ZM891 352h1v1h-1ZM874 352h1v1h-1ZM854 352h1v1h-1ZM837 352h1v1h-1ZM817 352h1v1h-1ZM800 352h1v1h-1ZM780 352h1v1h-1ZM763 352h1v1h-1ZM743 352h1v1h-1ZM726 352h1v1h-1ZM706 352h1v1h-1ZM689 352h1v1h-1ZM669 352h1v1h-1ZM652 352h1v1h-1ZM632 352h1v1h-1ZM615 352h1v1h-1ZM595 352h1v1h-1ZM578 352h1v1h-1ZM558 352h1v1h-1ZM541 352h1v1h-1ZM521 352h1v1h-1ZM504 352h1v1h-1ZM484 352h1v1h-1ZM467 352h1v1h-1ZM447 352h1v1h-1ZM430 352h1v1h-1ZM410 352h1v1h-1ZM393 352h1v1h-1ZM373 352h1v1h-1ZM356 352h1v1h-1ZM336 352h1v1h-1ZM319 352h1v1h-1ZM299 352h1v1h-1ZM282 352h1v1h-1ZM262 352h1v1h-1ZM245 352h1v1h-1ZM225 352h1v1h-1ZM208 352h1v1h-1ZM188 352h1v1h-1ZM171 352h1v1h-1ZM151 352h1v1h-1ZM134 352h1v1h-1ZM114 352h1v1h-1Z" fill="#d8d8d8"/><path d="M911 351h1v1h-1ZM891 351h1v1h-1ZM874 351h1v1h-1ZM854 351h1v1h-1ZM837 351h1v1h-1ZM817 351h1v1h-1ZM800 351h1v1h-1ZM780 351h1v1h-1ZM763 351h1v1h-1ZM743 351h1v1h-1ZM726 351h1v1h-1ZM706 351h1v1h-1ZM689 351h1v1h-1ZM669 351h1v1h-1ZM652 351h1v1h-1ZM632 351h1v1h-1ZM615 351h1v1h-1ZM595 351h1v1h-1ZM578 351h1v1h-1ZM558 351h1v1h-1ZM541 351h1v1h-1ZM521 351h1v1h-1ZM504 351h1v1h-1ZM484 351h1v1h-1ZM467 351h1v1h-1ZM447 351h1v1h-1ZM430 351h1v1h-1ZM410 351h1v1h-1ZM393 351h1v1h-1ZM373 351h1v1h-1ZM356 351h1v1h-1ZM336 351h1v1h-1ZM319 351h1v1h-1ZM299 351h1v1h-1ZM282 351h1v1h-1ZM262 351h1v1h-1ZM245 351h1v1h-1ZM225 351h1v1h-1ZM208 351h1v1h-1ZM188 351h1v1h-1ZM171 351h1v1h-1ZM151 351h1v1h-1ZM134 351h1v1h-1ZM114 351h1v1h-1Z" fill="#c8c8c8"/><path d="M911 350h1v1h-1ZM891 350h1v1h-1ZM874 350h1v1h-1ZM854 350h1v1h-1ZM837 350h1v1h-1ZM817 350h1v1h-1ZM800 350h1v1h-1ZM780 350h1v1h-1ZM763 350h1v1h-1ZM743 350h1v1h-1ZM726 350h1v1h-1ZM706 350h1v1h-1ZM689 350h1v1h-1ZM669 350h1v1h-1ZM652 350h1v1h-1ZM632 350h1v1h-1ZM615 350h1v1h-1ZM595 350h1v1h-1ZM578 350h1v1h-1ZM558 350h1v1h-1ZM541 350h1v1h-1ZM521 350h1v1h-1ZM504 350h1v1h-1ZM484 350h1v1h-1ZM467 350h1v1h-1ZM447 350h1v1h-1ZM430 350h1v1h-1ZM410 350h1v1h-1ZM393 350h1v1h-1ZM373 350h1v1h-1ZM356 350h1v1h-1ZM336 350h1v1h-1ZM319 350h1v1h-1ZM299 350h1v1h-1ZM282 350h1v1h-1ZM262 350h1v1h-1ZM245 350h1v1h-1ZM225 350h1v1h-1ZM208 350h1v1h-1ZM188 350h1v1h-1ZM171 350h1v1h-1ZM151 350h1v1h-1ZM134 350h1v1h-1ZM114 350h1v1h-1Z" fill="#c0c0c0"/><path d="M911 346h1v1h-1ZM891 346h1v1h-1ZM874 346h1v1h-1ZM854 346h1v1h-1ZM837 346h1v1h-1ZM817 346h1v1h-1ZM800 346h1v1h-1ZM780 346h1v1h-1ZM763 346h1v1h-1ZM743 346h1v1h-1ZM726 346h1v1h-1ZM706 346h1v1h-1ZM689 346h1v1h-1ZM669 346h1v1h-1ZM652 346h1v1h-1ZM632 346h1v1h-1ZM615 346h1v1h-1ZM595 346h1v1h-1ZM578 346h1v1h-1ZM558 346h1v1h-1ZM541 346h1v1h-1ZM521 346h1v1h-1ZM504 346h1v1h-1ZM484 346h1v1h-1ZM467 346h1v1h-1ZM447 346h1v1h-1ZM430 346h1v1h-1ZM410 346h1v1h-1ZM393 346h1v1h-1ZM373 346h1v1h-1ZM356 346h1v1h-1ZM336 346h1v1h-1ZM319 346h1v1h-1ZM299 346h1v1h-1ZM282 346h1v1h-1ZM262 346h1v1h-1ZM245 346h1v1h-1ZM225 346h1v1h-1ZM208 346h1v1h-1ZM188 346h1v1h-1ZM171 346h1v1h-1ZM151 346h1v1h-1ZM134 346h1v1h-1ZM114 346h1v1h-1Z" fill="#c8c8c8"/><path d="M911 345h1v1h-1ZM891 345h1v1h-1ZM874 345h1v1h-1ZM837 345h1v1h-1ZM800 345h1v1h-1ZM780 345h1v1h-1ZM763 345h1v1h-1ZM726 345h1v1h-1ZM669 345h1v1h-1ZM652 345h1v1h-1ZM632 345h1v1h-1ZM595 345h1v1h-1Z" fill="#d8d8d0"/><path d="M578 345h1v1h-1Z" fill="#d8d8d8"/><path d="M521 345h1v1h-1ZM504 345h1v1h-1ZM467 345h1v1h-1ZM430 345h1v1h-1ZM393 345h1v1h-1ZM373 345h1v1h-1ZM336 345h1v1h-1ZM299 345h1v1h-1ZM262 345h1v1h-1ZM225 345h1v1h-1ZM208 345h1v1h-1ZM171 345h1v1h-1ZM134 345h1v1h-1Z" fill="#d8d8d0"/><path d="M912 344h1v1h-1ZM890 344h1v1h-1ZM875 344h1v1h-1Z" fill="#c8c8c8"/><path d="M854 344h1v1h-1Z" fill="#e0e0d8"/><path d="M853 344h1v1h-1ZM838 344h1v1h-1ZM816 344h1v1h-1ZM801 344h1v1h-1ZM779 344h1v1h-1ZM764 344h1v1h-1Z" fill="#c8c8c8"/><path d="M743 344h1v1h-1Z" fill="#e0e0d8"/><path d="M742 344h1v1h-1ZM727 344h1v1h-1Z" fill="#c0c0c0"/><path d="M705 344h1v1h-1Z" fill="#c8c8c8"/><path d="M690 344h1v1h-1ZM668 344h1v1h-1Z" fill="#c0c0c0"/><path d="M653 344h1v1h-1ZM631 344h1v1h-1Z" fill="#c8c8c8"/><path d="M616 344h1v1h-1Z" fill="#c0c0c0"/><path d="M615 344h1v1h-1Z" fill="#e0e0d8"/><path d="M594 344h1v1h-1ZM579 344h1v1h-1Z" fill="#c8c8c8"/><path d="M558 344h1v1h-1Z" fill="#e0e0d8"/><path d="M557 344h1v1h-1ZM542 344h1v1h-1Z" fill="#c8c8c8"/><path d="M541 344h1v1h-1Z" fill="#e0e0d8"/><path d="M520 344h1v1h-1ZM505 344h1v1h-1Z" fill="#c8c8c8"/><path d="M484 344h1v1h-1Z" fill="#e0e0d8"/><path d="M483 344h1v1h-1Z" fill="#c0c0c0"/><path d="M468 344h1v1h-1ZM446 344h1v1h-1Z" fill="#c8c8c8"/><path d="M431 344h1v1h-1ZM409 344h1v1h-1Z" fill="#c0c0c0"/><path d="M394 344h1v1h-1Z" fill="#c8c8c8"/><path d="M372 344h1v1h-1ZM357 344h1v1h-1Z" fill="#c0c0c0"/><path d="M356 344h1v1h-1Z" fill="#e0e0d8"/><path d="M335 344h1v1h-1ZM320 344h1v1h-1ZM298 344h1v1h-1ZM283 344h1v1h-1ZM261 344h1v1h-1ZM246 344h1v1h-1Z" fill="#c8c8c8"/><path d="M245 344h1v1h-1Z" fill="#e0e0d8"/><path d="M224 344h1v1h-1ZM209 344h1v1h-1ZM187 344h1v1h-1ZM172 344h1v1h-1ZM150 344h1v1h-1ZM135 344h1v1h-1Z" fill="#c8c8c8"/><path d="M113 344h1v1h-1ZM914 342h1v1h-1ZM888 342h1v1h-1ZM877 342h1v1h-1ZM851 342h1v1h-1ZM840 342h1v1h-1ZM814 342h1v1h-1ZM803 342h1v1h-1ZM777 342h1v1h-1ZM766 342h1v1h-1ZM740 342h1v1h-1ZM729 342h1v1h-1ZM703 342h1v1h-1ZM692 342h1v1h-1ZM666 342h1v1h-1ZM655 342h1v1h-1ZM629 342h1v1h-1ZM618 342h1v1h-1ZM592 342h1v1h-1ZM581 342h1v1h-1ZM555 342h1v1h-1ZM544 342h1v1h-1ZM518 342h1v1h-1ZM507 342h1v1h-1ZM481 342h1v1h-1ZM470 342h1v1h-1ZM444 342h1v1h-1ZM433 342h1v1h-1ZM407 342h1v1h-1ZM396 342h1v1h-1ZM370 342h1v1h-1ZM359 342h1v1h-1ZM333 342h1v1h-1ZM322 342h1v1h-1ZM296 342h1v1h-1ZM285 342h1v1h-1ZM259 342h1v1h-1ZM248 342h1v1h-1ZM222 342h1v1h-1ZM211 342h1v1h-1ZM185 342h1v1h-1ZM174 342h1v1h-1ZM148 342h1v1h-1ZM137 342h1v1h-1ZM111 342h1v1h-1Z" fill="#c0c0c0"/><path d="M915 341h1v1h-1ZM887 341h1v1h-1Z" fill="#c8c8c8"/><path d="M878 341h1v1h-1Z" fill="#d0d0c8"/><path d="M850 341h1v1h-1ZM841 341h1v1h-1Z" fill="#c8c8c8"/><path d="M813 341h1v1h-1Z" fill="#d0d0c8"/><path d="M804 341h1v1h-1ZM776 341h1v1h-1ZM767 341h1v1h-1ZM739 341h1v1h-1ZM730 341h1v1h-1ZM702 341h1v1h-1ZM693 341h1v1h-1ZM665 341h1v1h-1ZM656 341h1v1h-1ZM628 341h1v1h-1Z" fill="#c8c8c8"/><path d="M619 341h1v1h-1Z" fill="#d0d0c8"/><path d="M591 341h1v1h-1ZM582 341h1v1h-1ZM554 341h1v1h-1ZM545 341h1v1h-1ZM517 341h1v1h-1ZM508 341h1v1h-1ZM480 341h1v1h-1ZM471 341h1v1h-1ZM443 341h1v1h-1ZM434 341h1v1h-1ZM406 341h1v1h-1ZM397 341h1v1h-1ZM369 341h1v1h-1ZM360 341h1v1h-1ZM332 341h1v1h-1ZM323 341h1v1h-1ZM295 341h1v1h-1ZM286 341h1v1h-1ZM258 341h1v1h-1ZM249 341h1v1h-1ZM221 341h1v1h-1ZM212 341h1v1h-1ZM184 341h1v1h-1ZM175 341h1v1h-1ZM147 341h1v1h-1ZM138 341h1v1h-1Z" fill="#c8c8c8"/><path d="M110 341h1v1h-1Z" fill="#d0d0c8"/><path d="M922 340h1v1h-1ZM917 340h1v1h-1ZM885 340h1v1h-1ZM880 340h1v1h-1ZM848 340h1v1h-1ZM843 340h1v1h-1ZM811 340h1v1h-1ZM806 340h1v1h-1ZM774 340h1v1h-1ZM769 340h1v1h-1ZM737 340h1v1h-1ZM732 340h1v1h-1ZM695 340h1v1h-1ZM663 340h1v1h-1ZM658 340h1v1h-1ZM626 340h1v1h-1ZM621 340h1v1h-1ZM589 340h1v1h-1ZM584 340h1v1h-1ZM552 340h1v1h-1ZM515 340h1v1h-1ZM510 340h1v1h-1ZM478 340h1v1h-1ZM473 340h1v1h-1ZM441 340h1v1h-1ZM436 340h1v1h-1ZM404 340h1v1h-1ZM399 340h1v1h-1ZM367 340h1v1h-1ZM362 340h1v1h-1ZM330 340h1v1h-1ZM325 340h1v1h-1ZM256 340h1v1h-1ZM251 340h1v1h-1ZM219 340h1v1h-1ZM214 340h1v1h-1ZM182 340h1v1h-1ZM177 340h1v1h-1ZM145 340h1v1h-1ZM140 340h1v1h-1ZM108 340h1v1h-1ZM103 340h1v1h-1Z" fill="#d0d0d0"/><path d="M100 310h1v1h-1Z" fill="#686868"/><path d="M923 290h1v1h-1Z" fill="#706830"/><path d="M923 288h1v1h-1Z" fill="#282820"/><path d="M101 282h1v1h-1Z" fill="#988028"/><path d="M101 280h1v1h-1Z" fill="#282820"/><path d="M922 274h1v1h-1Z" fill="#706830"/><path d="M922 273h1v1h-1Z" fill="#181810"/><path d="M102 271h1v1h-1Z" fill="#b09830"/><path d="M102 269h1v1h-1Z" fill="#706830"/><path d="M102 268h1v1h-1Z" fill="#181810"/><path d="M921 266h1v1h-1Z" fill="#b09830"/><path d="M921 264h1v1h-1Z" fill="#706830"/><path d="M921 263h1v1h-1Z" fill="#181810"/><path d="M103 260h1v1h-1Z" fill="#706830"/><path d="M920 259h1v1h-1Z" fill="#e0a830"/><path d="M920 257h1v1h-1Z" fill="#a88828"/><path d="M920 256h1v1h-1Z" fill="#282820"/><path d="M104 256h1v1h-1Z" fill="#e0a830"/><path d="M104 254h1v1h-1Z" fill="#a88828"/><path d="M104 253h1v1h-1Z" fill="#282820"/><path d="M919 252h1v1h-1Z" fill="#e0a830"/><path d="M919 250h1v1h-1Z" fill="#706830"/><path d="M105 248h1v1h-1Z" fill="#b8a050"/><path d="M105 247h1v1h-1Z" fill="#605018"/><path d="M918 245h1v1h-1Z" fill="#a88828"/><path d="M106 243h1v1h-1Z" fill="#b09830"/><path d="M106 242h1v1h-1Z" fill="#282820"/><path d="M917 240h1v1h-1Z" fill="#706830"/><path d="M107 238h1v1h-1Z" fill="#a88828"/><path d="M916 236h1v1h-1Z" fill="#b8a050"/><path d="M916 235h1v1h-1Z" fill="#282820"/><path d="M108 234h1v1h-1Z" fill="#b8a050"/><path d="M108 233h1v1h-1Z" fill="#181810"/><path d="M915 232h1v1h-1Z" fill="#b09830"/><path d="M109 232h1v1h-1Z" fill="#f8c048"/><path d="M109 230h1v1h-1Z" fill="#706830"/><path d="M914 229h1v1h-1Z" fill="#f8b838"/><path d="M914 228h1v1h-1Z" fill="#605018"/><path d="M110 228h1v1h-1Z" fill="#f8c030"/><path d="M110 227h1v1h-1Z" fill="#b8a050"/><path d="M913 225h1v1h-1Z" fill="#b09830"/><path d="M111 223h1v1h-1Z" fill="#706830"/><path d="M912 222h1v1h-1Z" fill="#f8b838"/><path d="M912 221h1v1h-1Z" fill="#282820"/><path d="M112 220h1v1h-1Z" fill="#988028"/><path d="M911 219h1v1h-1Z" fill="#f8b838"/><path d="M911 218h1v1h-1Z" fill="#181810"/><path d="M113 217h1v1h-1Z" fill="#706830"/><path d="M910 216h1v1h-1Z" fill="#f8b838"/><path d="M114 214h1v1h-1Z" fill="#282820"/><path d="M909 213h1v1h-1Z" fill="#988028"/><path d="M115 212h1v1h-1Z" fill="#b09830"/><path d="M908 211h1v1h-1Z" fill="#f8b840"/><path d="M908 210h1v1h-1Z" fill="#181810"/><path d="M116 210h1v1h-1Z" fill="#f8c048"/><path d="M116 209h1v1h-1Z" fill="#605018"/><path d="M907 208h1v1h-1Z" fill="#988028"/><path d="M117 207h1v1h-1Z" fill="#a88828"/><path d="M906 206h1v1h-1Z" fill="#c0a860"/><path d="M118 205h1v1h-1Z" fill="#f8b840"/><path d="M905 204h1v1h-1Z" fill="#f8c048"/><path d="M905 203h1v1h-1Z" fill="#181810"/><path d="M904 201h1v1h-1Z" fill="#282820"/><path d="M120 200h1v1h-1Z" fill="#181810"/><path d="M903 199h1v1h-1ZM121 198h1v1h-1Z" fill="#282820"/><path d="M902 197h1v1h-1Z" fill="#605018"/><path d="M122 196h1v1h-1ZM901 195h1v1h-1Z" fill="#181810"/><path d="M124 193h1v1h-1Z" fill="#f8b840"/><path d="M899 192h1v1h-1Z" fill="#c8b048"/><path d="M125 191h1v1h-1ZM898 190h1v1h-1Z" fill="#b09830"/><path d="M126 189h1v1h-1ZM897 188h1v1h-1Z" fill="#706830"/><path d="M127 188h1v1h-1ZM896 187h1v1h-1Z" fill="#f8c840"/><path d="M129 184h1v1h-1Z" fill="#b09830"/><path d="M894 183h1v1h-1Z" fill="#706830"/><path d="M130 183h1v1h-1Z" fill="#f8c840"/><path d="M893 182h1v1h-1Z" fill="#f8c048"/><path d="M131 181h1v1h-1Z" fill="#b09830"/><path d="M892 180h1v1h-1Z" fill="#706830"/><path d="M132 180h1v1h-1Z" fill="#f8c840"/><path d="M891 179h1v1h-1Z" fill="#f8c048"/><path d="M133 178h1v1h-1Z" fill="#b09830"/><path d="M890 177h1v1h-1Z" fill="#706830"/><path d="M134 177h1v1h-1Z" fill="#f8c840"/><path d="M889 176h1v1h-1Z" fill="#f8c048"/><path d="M135 175h1v1h-1Z" fill="#b09830"/><path d="M888 174h1v1h-1Z" fill="#605018"/><path d="M136 174h1v1h-1Z" fill="#f8c840"/><path d="M887 173h1v1h-1Z" fill="#f8b840"/><path d="M886 172h1v1h-1Z" fill="#f8c840"/><path d="M138 171h1v1h-1Z" fill="#b09830"/><path d="M139 170h1v1h-1Z" fill="#f8c048"/><path d="M884 169h1v1h-1Z" fill="#b09830"/><path d="M883 168h1v1h-1Z" fill="#f8c048"/><path d="M141 167h1v1h-1Z" fill="#383830"/><path d="M142 166h1v1h-1Z" fill="#c8b048"/><path d="M881 165h1v1h-1Z" fill="#383830"/><path d="M143 165h1v1h-1Z" fill="#f8c840"/><path d="M880 164h1v1h-1Z" fill="#c0c050"/><path d="M879 163h1v1h-1ZM878 162h1v1h-1Z" fill="#f8c840"/><path d="M147 160h1v1h-1Z" fill="#706830"/><path d="M148 159h1v1h-1Z" fill="#a8a8a8"/><path d="M149 158h1v1h-1Z" fill="#c8b048"/><path d="M150 157h1v1h-1Z" fill="#f8c050"/><path d="M151 156h1v1h-1Z" fill="#f8c840"/><path d="M872 155h1v1h-1Z" fill="#383830"/><path d="M871 154h1v1h-1Z" fill="#b09830"/><path d="M153 154h1v1h-1Z" fill="#f8d048"/><path d="M870 153h1v1h-1Z" fill="#b0b0a8"/><path d="M869 152h1v1h-1Z" fill="#706830"/><path d="M868 151h1v1h-1Z" fill="#383830"/><path d="M156 151h1v1h-1Z" fill="#f8c840"/><path d="M157 150h1v1h-1Z" fill="#f8c050"/><path d="M158 149h1v1h-1Z" fill="#c8b048"/><path d="M159 148h1v1h-1Z" fill="#b0b0a8"/><path d="M160 147h1v1h-1Z" fill="#706830"/><path d="M862 146h1v1h-1ZM861 145h1v1h-1ZM860 144h1v1h-1Z" fill="#f8d048"/><path d="M859 143h1v1h-1Z" fill="#c0c050"/><path d="M165 143h1v1h-1Z" fill="#f8d048"/><path d="M166 142h1v1h-1Z" fill="#f8c840"/><path d="M855 140h1v1h-1Z" fill="#f8d048"/><path d="M854 139h1v1h-1Z" fill="#b09830"/><path d="M170 139h1v1h-1Z" fill="#f8d048"/><path d="M171 138h1v1h-1Z" fill="#c0c050"/><path d="M851 137h1v1h-1ZM175 135h1v1h-1ZM178 133h1v1h-1Z" fill="#f8d048"/><path d="M181 131h1v1h-1ZM184 129h1v1h-1Z" fill="#f8c840"/><path d="M838 128h1v1h-1Z" fill="#f8d048"/><path d="M189 126h1v1h-1Z" fill="#c0c050"/><path d="M833 125h1v1h-1Z" fill="#787870"/><path d="M831 124h1v1h-1Z" fill="#f8c840"/><path d="M233 108h1v1h-1ZM237 107h1v1h-1Z" fill="#f8f8f8"/><path d="M772 104h1v1h-1ZM765 103h1v1h-1ZM258 103h1v1h-1Z"/><path d="M298 100h1v1h-1Z" fill="#f8f8f8"/></svg>